<?xml version="1.0" encoding="utf-8"?>
<!-- Generator: Adobe Illustrator 25.2.3, SVG Export Plug-In . SVG Version: 6.00 Build 0)  -->
<svg version="1.1" id="Layer_1" xmlns="http://www.w3.org/2000/svg" xmlns:xlink="http://www.w3.org/1999/xlink" x="0px" y="0px"
	 viewBox="0 0 960 540" style="enable-background:new 0 0 960 540;" xml:space="preserve">
<style type="text/css">
	.st0{fill-rule:evenodd;clip-rule:evenodd;fill:#CCCCCC;}
	.st1{fill:none;stroke:#004677;stroke-linejoin:round;stroke-miterlimit:10;}
	.st2{fill-rule:evenodd;clip-rule:evenodd;fill:#F4CCCC;}
	.st3{fill-rule:evenodd;clip-rule:evenodd;fill-opacity:0;}
	.st4{fill:#545859;}
	.st5{fill-rule:evenodd;clip-rule:evenodd;fill:#EA9999;}
	.st6{fill:none;stroke:#42719B;stroke-width:1.3333;stroke-miterlimit:10;}
	.st7{fill:#FFFFFF;}
	.st8{fill:none;stroke:#13294B;stroke-miterlimit:10;}
	.st9{fill-rule:evenodd;clip-rule:evenodd;fill:#13294B;stroke:#13294B;stroke-miterlimit:10;}
	.st10{fill:#E06666;}
	.st11{fill:#434343;}
	.st12{fill-rule:evenodd;clip-rule:evenodd;fill:#434343;}
</style>
<path class="st0" d="M85.9,391.8L85.9,391.8c0-5.6,4.5-10.1,10.1-10.1h707.1c2.7,0,5.3,1.1,7.1,3c1.9,1.9,3,4.5,3,7.1v40.4
	c0,5.6-4.5,10.1-10.1,10.1H96c-5.6,0-10.1-4.5-10.1-10.1V391.8z"/>
<path class="st1" d="M85.9,391.8L85.9,391.8c0-5.6,4.5-10.1,10.1-10.1h707.1c2.7,0,5.3,1.1,7.1,3c1.9,1.9,3,4.5,3,7.1v40.4
	c0,5.6-4.5,10.1-10.1,10.1H96c-5.6,0-10.1-4.5-10.1-10.1V391.8z"/>
<path class="st2" d="M85.9,130.7L85.9,130.7c0-17.9,14.5-32.4,32.4-32.4h664.3c8.6,0,16.8,3.4,22.9,9.5c6.1,6.1,9.5,14.3,9.5,22.9
	v129.6c0,17.9-14.5,32.4-32.4,32.4H118.3c-17.9,0-32.4-14.5-32.4-32.4V130.7z"/>
<path class="st1" d="M85.9,130.7L85.9,130.7c0-17.9,14.5-32.4,32.4-32.4h664.3c8.6,0,16.8,3.4,22.9,9.5c6.1,6.1,9.5,14.3,9.5,22.9
	v129.6c0,17.9-14.5,32.4-32.4,32.4H118.3c-17.9,0-32.4-14.5-32.4-32.4V130.7z"/>
<path class="st3" d="M197.4,103.3h127.7v35.4H197.4V103.3z"/>
<path class="st4" d="M208.9,127.5v-14.8h2.9l3.5,10.5c0.3,1,0.6,1.7,0.7,2.2c0.2-0.5,0.4-1.3,0.8-2.4l3.6-10.3h2.6v14.8h-1.9v-12.4
	l-4.3,12.4H215l-4.3-12.7v12.7H208.9z M224.6,127.5l5.7-14.8h2.1l6.1,14.8h-2.2l-1.7-4.5h-6.2l-1.6,4.5H224.6z M228.9,121.4h5
	l-1.5-4.1c-0.5-1.2-0.8-2.3-1.1-3.1c-0.2,1-0.5,1.9-0.8,2.8L228.9,121.4z M240.1,127.5v-14.8h10.7v1.7H242v4.5h8.2v1.7H242v5.1h9.1
	v1.7h-11V127.5z"/>
<path class="st5" d="M376.7,111L376.7,111c0-3.2,2.6-5.8,5.8-5.8h193.6c1.5,0,3,0.6,4.1,1.7c1.1,1.1,1.7,2.6,1.7,4.1v23.1
	c0,3.2-2.6,5.8-5.8,5.8H382.5c-3.2,0-5.8-2.6-5.8-5.8L376.7,111L376.7,111z"/>
<path class="st6" d="M376.7,111L376.7,111c0-3.2,2.6-5.8,5.8-5.8h193.6c1.5,0,3,0.6,4.1,1.7c1.1,1.1,1.7,2.6,1.7,4.1v23.1
	c0,3.2-2.6,5.8-5.8,5.8H382.5c-3.2,0-5.8-2.6-5.8-5.8L376.7,111L376.7,111z"/>
<path class="st7" d="M444.2,123.3c-0.3-0.2-0.7-0.4-1.1-0.5s-0.8-0.2-1.2-0.2c-0.8,0-1.4,0.1-1.9,0.4c-0.2,0.1-0.3,0.2-0.3,0.4
	s0.1,0.3,0.4,0.5c0.2,0.1,0.7,0.2,1.4,0.3c1.4,0.2,2.3,0.4,2.9,0.6c0.7,0.3,1.3,0.6,1.6,1.1c0.4,0.5,0.6,1,0.6,1.5
	c0,0.7-0.3,1.4-1,1.9c-0.9,0.7-2.2,1.1-3.6,1.1c-0.6,0-1.2-0.1-1.7-0.2c-0.5-0.1-1-0.3-1.4-0.5c-0.1,0.1-0.2,0.2-0.3,0.2
	c-0.1,0-0.2,0.1-0.4,0.1c-0.3,0-0.6-0.1-0.8-0.3c-0.2-0.2-0.3-0.6-0.3-1.1v-0.7c0-0.5,0.1-0.9,0.3-1.1c0.2-0.2,0.4-0.3,0.8-0.3
	c0.3,0,0.5,0.1,0.6,0.2c0.2,0.1,0.3,0.4,0.4,0.7c0.3,0.3,0.7,0.5,1.1,0.6c0.5,0.1,1,0.2,1.5,0.2c1,0,1.7-0.1,2.2-0.4
	c0.3-0.1,0.4-0.3,0.4-0.5c0-0.3-0.2-0.5-0.5-0.7c-0.4-0.2-1.1-0.3-2.2-0.4c-1.7-0.2-2.8-0.5-3.4-1s-0.8-1.1-0.8-1.8s0.3-1.3,1-1.8
	c0.9-0.7,2-1,3.3-1c0.5,0,1,0,1.4,0.1s0.9,0.2,1.3,0.4c0.1-0.1,0.3-0.2,0.4-0.2c0.1-0.1,0.2-0.1,0.3-0.1c0.3,0,0.5,0.1,0.7,0.3
	s0.3,0.6,0.3,1.1v0.5c0,0.4-0.1,0.7-0.2,0.9c-0.2,0.3-0.5,0.5-0.9,0.5c-0.3,0-0.5-0.1-0.7-0.2C444.4,123.7,444.2,123.5,444.2,123.3z
	 M456.3,130v-0.5c-0.5,0.3-1.1,0.5-1.7,0.6s-1.2,0.2-1.7,0.2c-1.1,0-2-0.3-2.7-0.9c-0.7-0.6-1-1.3-1-2c0-0.9,0.4-1.7,1.3-2.4
	c0.9-0.8,2.1-1.1,3.7-1.1c0.6,0,1.4,0.1,2.2,0.2v-0.5c0-0.3-0.1-0.6-0.4-0.8s-0.8-0.3-1.5-0.3c-0.6,0-1.4,0.1-2.4,0.4
	c-0.4,0.1-0.7,0.1-0.9,0.1c-0.3,0-0.5-0.1-0.7-0.3s-0.3-0.5-0.3-0.8c0-0.2,0-0.3,0.1-0.4c0.1-0.1,0.2-0.2,0.3-0.3
	c0.1-0.1,0.4-0.2,0.8-0.3c0.5-0.1,1-0.3,1.6-0.3c0.5-0.1,1-0.1,1.5-0.1c1.3,0,2.3,0.3,3,0.8s1.1,1.3,1.1,2.3v4.3h0.4
	c0.5,0,0.9,0.1,1.1,0.3c0.2,0.2,0.3,0.4,0.3,0.8c0,0.3-0.1,0.6-0.3,0.8c-0.2,0.2-0.6,0.3-1.1,0.3h-2.7V130z M456.3,126.3
	c-0.8-0.2-1.6-0.2-2.3-0.2c-0.8,0-1.6,0.2-2.2,0.6c-0.4,0.3-0.6,0.5-0.6,0.8c0,0.2,0.1,0.4,0.3,0.5c0.3,0.2,0.8,0.3,1.4,0.3
	c0.5,0,1.1-0.1,1.7-0.3c0.6-0.2,1.2-0.5,1.7-0.8V126.3z M466.8,127.5l2.2-4.6c-0.5,0-0.9,0-1.1-0.1c-0.3-0.2-0.5-0.5-0.5-0.9
	c0-0.3,0.1-0.6,0.3-0.8c0.2-0.2,0.6-0.3,1.1-0.3h2.9c0.5,0,0.9,0.1,1.1,0.3s0.3,0.4,0.3,0.8s-0.1,0.6-0.3,0.8
	c-0.2,0.2-0.6,0.3-1.1,0.3h-0.4l-3.5,7.1h-2l-3.5-7.1H462c-0.5,0-0.9-0.1-1.1-0.3s-0.3-0.4-0.3-0.8s0.1-0.6,0.3-0.8
	c0.2-0.2,0.6-0.3,1.1-0.3h2.8c0.5,0,0.8,0.1,1,0.3s0.3,0.4,0.3,0.8c0,0.4-0.2,0.7-0.5,0.9c-0.2,0.1-0.5,0.2-1.1,0.2L466.8,127.5z
	 M484.5,126.5H476c0.2,0.5,0.6,1,1.2,1.3c0.5,0.3,1.3,0.5,2.2,0.5c0.8,0,1.8-0.2,3.1-0.5c0.5-0.1,0.9-0.2,1.1-0.2
	c0.3,0,0.5,0.1,0.7,0.3c0.2,0.2,0.3,0.4,0.3,0.7s-0.1,0.5-0.3,0.7c-0.3,0.3-0.9,0.5-2,0.7c-1,0.2-2,0.3-3,0.3c-1.7,0-3-0.5-4-1.4
	s-1.5-2.1-1.5-3.5c0-1.5,0.5-2.6,1.6-3.6c1.1-0.9,2.3-1.4,3.7-1.4c0.8,0,1.6,0.1,2.3,0.4c0.7,0.3,1.2,0.6,1.6,1
	c0.5,0.5,0.9,1.1,1.2,1.9c0.2,0.5,0.3,1.1,0.3,1.8L484.5,126.5L484.5,126.5z M482.2,124.4c-0.3-0.6-0.7-1-1.2-1.3s-1.1-0.4-1.8-0.4
	s-1.3,0.1-1.8,0.4c-0.5,0.3-0.9,0.7-1.2,1.3H482.2z M488.5,121.8v6.2h0.8c0.5,0,0.8,0.1,1,0.3s0.3,0.4,0.3,0.8
	c0,0.3-0.1,0.6-0.3,0.8c-0.2,0.2-0.6,0.3-1,0.3h-2.7c-0.5,0-0.9-0.1-1.1-0.3s-0.3-0.4-0.3-0.8c0-0.3,0.1-0.6,0.3-0.8
	c0.2-0.2,0.5-0.3,1-0.3v-8.1c-0.4,0-0.6-0.2-0.8-0.3c-0.2-0.2-0.3-0.4-0.3-0.7s0.1-0.6,0.3-0.8c0.2-0.2,0.6-0.3,1.1-0.3h2.3l2.8,6.2
	l2.8-6.3h2.3c0.5,0,0.9,0.1,1.1,0.3s0.3,0.4,0.3,0.8c0,0.3-0.1,0.5-0.3,0.7c-0.2,0.2-0.5,0.3-0.8,0.3v8.1c0.4,0,0.7,0.1,1,0.3
	c0.2,0.2,0.3,0.4,0.3,0.7s-0.1,0.6-0.3,0.8c-0.2,0.2-0.6,0.3-1.1,0.3h-2.7c-0.5,0-0.8-0.1-1.1-0.3c-0.2-0.2-0.3-0.4-0.3-0.8
	c0-0.3,0.1-0.6,0.3-0.8c0.2-0.2,0.6-0.3,1.1-0.3h0.8v-6.2l-2.4,5.4h-1.8L488.5,121.8z M506.7,126.7h-5l-0.5,1.3h0.5
	c0.5,0,0.9,0.1,1.1,0.3s0.3,0.4,0.3,0.8c0,0.3-0.1,0.6-0.3,0.8c-0.2,0.2-0.6,0.3-1.1,0.3h-2.8c-0.5,0-0.9-0.1-1.1-0.3
	s-0.3-0.4-0.3-0.8c0-0.3,0.1-0.6,0.3-0.8c0.2-0.2,0.6-0.3,1.1-0.3l3.3-8.1h-1.4c-0.5,0-0.9-0.1-1.1-0.3s-0.3-0.4-0.3-0.8
	c0-0.3,0.1-0.6,0.3-0.8c0.2-0.2,0.6-0.3,1.1-0.3h4.5l4.1,10.2c0.5,0,0.8,0.1,1,0.2c0.3,0.2,0.5,0.5,0.5,0.9c0,0.3-0.1,0.6-0.3,0.8
	c-0.2,0.2-0.6,0.3-1.1,0.3h-2.8c-0.5,0-0.9-0.1-1.1-0.3s-0.3-0.4-0.3-0.8c0-0.3,0.1-0.6,0.3-0.8c0.2-0.2,0.6-0.3,1.1-0.3h0.5
	L506.7,126.7z M505.9,124.6l-1.7-4.1l-1.7,4.1H505.9z M514.5,124.9v3.1h5.3v-1.1c0-0.5,0.1-0.9,0.3-1.1s0.4-0.3,0.8-0.3
	c0.3,0,0.5,0.1,0.7,0.3s0.3,0.6,0.3,1.1v3.2h-9.8c-0.5,0-0.8-0.1-1.1-0.3c-0.2-0.2-0.3-0.4-0.3-0.8c0-0.3,0.1-0.6,0.3-0.8
	c0.2-0.2,0.6-0.3,1.1-0.3h0.3v-8.1h-0.3c-0.5,0-0.8-0.1-1.1-0.3c-0.2-0.2-0.3-0.4-0.3-0.8s0.1-0.6,0.3-0.8c0.2-0.2,0.6-0.3,1.1-0.3
	h9.3v3.2c0,0.5-0.1,0.8-0.3,1.1c-0.2,0.2-0.4,0.3-0.8,0.3s-0.6-0.1-0.8-0.3s-0.3-0.6-0.3-1.1v-1.1h-4.8v3h1.8c0-0.5,0.1-0.9,0.2-1
	c0.2-0.3,0.5-0.5,0.9-0.5c0.3,0,0.5,0.1,0.7,0.3s0.3,0.6,0.3,1v2.4c0,0.4-0.1,0.7-0.2,0.9c-0.2,0.3-0.5,0.5-0.9,0.5
	s-0.7-0.2-0.9-0.5c-0.1-0.2-0.2-0.5-0.2-1.1h-1.6V124.9z"/>
<path class="st3" d="M312.9,121.5l49-0.5"/>
<path class="st8" d="M312.9,121.5l40.5-0.4"/>
<path class="st9" d="M353.4,123.4l6.4-2.4l-6.4-2.3V123.4z"/>
<path class="st3" d="M591.3,121.5l49-0.5"/>
<path class="st8" d="M591.3,121.5l40.5-0.4"/>
<path class="st9" d="M631.8,123.4l6.4-2.4l-6.4-2.3V123.4z"/>
<path class="st3" d="M197.4,149.6h117.4V185H197.4V149.6z"/>
<path class="st4" d="M208.7,173.8V159h1.8v5.3c0.9-1,1.9-1.5,3.2-1.5c0.8,0,1.5,0.2,2.1,0.5s1,0.7,1.3,1.3c0.3,0.5,0.4,1.3,0.4,2.4
	v6.8h-1.8V167c0-0.9-0.2-1.6-0.6-2c-0.4-0.4-1-0.6-1.7-0.6c-0.5,0-1.1,0.1-1.5,0.4c-0.5,0.3-0.8,0.7-1,1.2s-0.3,1.1-0.3,2v5.9
	L208.7,173.8L208.7,173.8z M227.2,173.8v-1.3c-0.7,1.1-1.7,1.6-3,1.6c-0.9,0-1.6-0.2-2.4-0.7c-0.7-0.5-1.3-1.1-1.7-2
	s-0.6-1.8-0.6-2.9c0-1.1,0.2-2,0.5-2.9c0.4-0.9,0.9-1.5,1.6-2c0.7-0.5,1.5-0.7,2.4-0.7c0.6,0,1.2,0.1,1.7,0.4c0.5,0.3,0.9,0.6,1.2,1
	V159h1.8v14.8H227.2z M221.5,168.4c0,1.4,0.3,2.4,0.9,3.1c0.6,0.7,1.3,1,2.1,1s1.5-0.3,2-1c0.6-0.6,0.8-1.6,0.8-3
	c0-1.5-0.3-2.6-0.9-3.2c-0.6-0.7-1.3-1-2.1-1s-1.5,0.3-2,1C221.8,165.9,221.5,167,221.5,168.4z M232.2,173.8v-9.3h-1.6v-1.4h1.6
	v-1.2c0-0.7,0.1-1.3,0.2-1.6c0.2-0.5,0.5-0.9,0.9-1.2s1.1-0.4,1.9-0.4c0.5,0,1.1,0.1,1.7,0.2l-0.3,1.6c-0.4-0.1-0.7-0.1-1.1-0.1
	c-0.5,0-0.9,0.1-1.2,0.4c-0.2,0.2-0.3,0.7-0.3,1.3v1h2.1v1.4H234v9.3H232.2z M237.1,169.9l1.9-0.2c0.1,0.9,0.5,1.6,1,2.1
	s1.1,0.7,1.9,0.7c0.9,0,1.6-0.3,2.2-1c0.6-0.7,0.9-1.5,0.9-2.6c0-1-0.3-1.9-0.9-2.5c-0.6-0.6-1.4-0.9-2.3-0.9
	c-0.6,0-1.1,0.1-1.6,0.4c-0.5,0.3-0.8,0.6-1.1,1l-1.7-0.2l1.4-7.6h7.4v1.7h-5.9l-0.8,4c0.9-0.6,1.8-0.9,2.8-0.9
	c1.3,0,2.4,0.4,3.3,1.3c0.9,0.9,1.3,2,1.3,3.5c0,1.4-0.4,2.5-1.2,3.5c-1,1.2-2.3,1.8-3.9,1.8c-1.4,0-2.5-0.4-3.3-1.1
	C237.7,172.1,237.2,171.1,237.1,169.9z"/>
<path class="st5" d="M374.8,156.2L374.8,156.2c0-3.2,2.6-5.8,5.8-5.8h193.6c1.5,0,3,0.6,4.1,1.7c1.1,1.1,1.7,2.6,1.7,4.1v23.2
	c0,3.2-2.6,5.8-5.8,5.8H380.6c-3.2,0-5.8-2.6-5.8-5.8V156.2z"/>
<path class="st6" d="M374.8,156.2L374.8,156.2c0-3.2,2.6-5.8,5.8-5.8h193.6c1.5,0,3,0.6,4.1,1.7c1.1,1.1,1.7,2.6,1.7,4.1v23.2
	c0,3.2-2.6,5.8-5.8,5.8H380.6c-3.2,0-5.8-2.6-5.8-5.8V156.2z"/>
<path class="st7" d="M441,162.1v11.1h2.5c0.5,0,0.9,0.1,1.1,0.3c0.2,0.2,0.3,0.4,0.3,0.8c0,0.3-0.1,0.6-0.3,0.8
	c-0.2,0.2-0.6,0.3-1.1,0.3h-7.1c-0.5,0-0.9-0.1-1.1-0.3c-0.2-0.2-0.3-0.4-0.3-0.8c0-0.3,0.1-0.6,0.3-0.8c0.2-0.2,0.6-0.3,1.1-0.3
	h2.5v-9h-1.7c-0.5,0-0.9-0.1-1.1-0.3s-0.3-0.4-0.3-0.8s0.1-0.6,0.3-0.8c0.2-0.2,0.6-0.3,1.1-0.3h3.8V162.1z M457.8,170.8
	c0,0.8-0.2,1.6-0.7,2.3c-0.4,0.7-1.1,1.3-2,1.8c-0.9,0.4-1.8,0.7-2.7,0.7c-0.9,0-1.9-0.2-2.7-0.6c-0.9-0.4-1.5-1-2-1.8
	s-0.7-1.5-0.7-2.3s0.2-1.6,0.7-2.4c0.5-0.8,1.1-1.4,2-1.9s1.8-0.7,2.7-0.7c0.9,0,1.9,0.2,2.7,0.7c0.9,0.5,1.5,1.1,2,1.9
	C457.6,169.2,457.8,170,457.8,170.8z M455.8,170.8c0-0.7-0.2-1.3-0.7-1.8c-0.7-0.8-1.5-1.1-2.6-1.1c-0.9,0-1.7,0.3-2.4,0.9
	c-0.6,0.6-0.9,1.3-0.9,2.1c0,0.6,0.3,1.3,1,1.8c0.6,0.6,1.4,0.8,2.3,0.8s1.7-0.3,2.3-0.8C455.4,172.1,455.8,171.5,455.8,170.8z
	 M466.8,175.2v-0.5c-0.5,0.3-1.1,0.5-1.7,0.6s-1.2,0.2-1.7,0.2c-1.1,0-2-0.3-2.7-0.9s-1-1.3-1-2c0-0.9,0.4-1.7,1.3-2.4
	c0.9-0.8,2.1-1.1,3.7-1.1c0.6,0,1.4,0.1,2.2,0.2v-0.5c0-0.3-0.1-0.6-0.4-0.8s-0.8-0.3-1.5-0.3c-0.6,0-1.4,0.1-2.4,0.4
	c-0.4,0.1-0.7,0.1-0.9,0.1c-0.3,0-0.5-0.1-0.7-0.3s-0.3-0.5-0.3-0.8c0-0.2,0-0.3,0.1-0.4c0.1-0.1,0.2-0.2,0.3-0.3
	c0.1-0.1,0.4-0.2,0.8-0.3c0.5-0.1,1-0.3,1.6-0.3c0.5-0.1,1-0.1,1.5-0.1c1.3,0,2.3,0.3,3,0.8s1.1,1.3,1.1,2.3v4.3h0.4
	c0.5,0,0.9,0.1,1.1,0.3c0.2,0.2,0.3,0.4,0.3,0.8c0,0.3-0.1,0.6-0.3,0.8c-0.2,0.2-0.6,0.3-1.1,0.3L466.8,175.2L466.8,175.2z
	 M466.8,171.5c-0.8-0.2-1.6-0.2-2.3-0.2c-0.8,0-1.6,0.2-2.2,0.6c-0.4,0.3-0.6,0.5-0.6,0.8c0,0.2,0.1,0.4,0.3,0.5
	c0.3,0.2,0.8,0.3,1.4,0.3c0.5,0,1.1-0.1,1.7-0.3c0.6-0.2,1.2-0.5,1.7-0.8V171.5z M482.1,162.1v11.1h0.4c0.5,0,0.8,0.1,1.1,0.3
	c0.2,0.2,0.3,0.4,0.3,0.8c0,0.3-0.1,0.6-0.3,0.8c-0.2,0.2-0.6,0.3-1.1,0.3h-2.4v-0.5c-0.5,0.3-1,0.5-1.5,0.6s-1.1,0.2-1.6,0.2
	c-1.5,0-2.8-0.4-3.8-1.3s-1.4-2-1.4-3.4s0.5-2.6,1.5-3.6s2.2-1.5,3.7-1.5c0.5,0,1.1,0.1,1.6,0.2c0.5,0.2,1,0.4,1.5,0.8v-2.6h-0.4
	c-0.5,0-0.9-0.1-1.1-0.3s-0.3-0.4-0.3-0.8s0.1-0.6,0.3-0.8c0.2-0.2,0.6-0.3,1.1-0.3L482.1,162.1L482.1,162.1z M480,170.9
	c0-0.9-0.3-1.6-0.9-2.2c-0.6-0.6-1.3-0.9-2.2-0.9c-0.9,0-1.6,0.3-2.2,0.9c-0.6,0.6-0.9,1.3-0.9,2.1c0,0.8,0.3,1.4,0.8,1.9
	s1.3,0.7,2.3,0.7s1.8-0.2,2.3-0.7C479.8,172.3,480,171.7,480,170.9z M486.6,167v6.2h0.8c0.5,0,0.8,0.1,1,0.3
	c0.2,0.2,0.3,0.4,0.3,0.8c0,0.3-0.1,0.6-0.3,0.8c-0.2,0.2-0.6,0.3-1,0.3h-2.7c-0.5,0-0.9-0.1-1.1-0.3c-0.2-0.2-0.3-0.4-0.3-0.8
	c0-0.3,0.1-0.6,0.3-0.8c0.2-0.2,0.5-0.3,1-0.3v-8.1c-0.4,0-0.6-0.2-0.8-0.3c-0.2-0.2-0.3-0.4-0.3-0.7s0.1-0.6,0.3-0.8
	c0.2-0.2,0.6-0.3,1.1-0.3h2.3l2.8,6.2l2.8-6.3h2.3c0.5,0,0.9,0.1,1.1,0.3s0.3,0.4,0.3,0.8c0,0.3-0.1,0.5-0.3,0.7
	c-0.2,0.2-0.5,0.3-0.8,0.3v8.1c0.4,0,0.7,0.1,1,0.3c0.2,0.2,0.3,0.4,0.3,0.7c0,0.3-0.1,0.6-0.3,0.8c-0.2,0.2-0.6,0.3-1.1,0.3h-2.7
	c-0.5,0-0.8-0.1-1.1-0.3c-0.2-0.2-0.3-0.4-0.3-0.8c0-0.3,0.1-0.6,0.3-0.8c0.2-0.2,0.6-0.3,1.1-0.3h0.8v-6.2l-2.4,5.4h-1.8L486.6,167
	z M504.8,171.9h-5l-0.5,1.3h0.5c0.5,0,0.9,0.1,1.1,0.3c0.2,0.2,0.3,0.4,0.3,0.8c0,0.3-0.1,0.6-0.3,0.8c-0.2,0.2-0.6,0.3-1.1,0.3H497
	c-0.5,0-0.9-0.1-1.1-0.3c-0.2-0.2-0.3-0.4-0.3-0.8c0-0.3,0.1-0.6,0.3-0.8c0.2-0.2,0.6-0.3,1.1-0.3l3.3-8.1H499
	c-0.5,0-0.9-0.1-1.1-0.3s-0.3-0.4-0.3-0.8c0-0.3,0.1-0.6,0.3-0.8c0.2-0.2,0.6-0.3,1.1-0.3h4.5l4.1,10.2c0.5,0,0.8,0.1,1,0.2
	c0.3,0.2,0.5,0.5,0.5,0.9c0,0.3-0.1,0.6-0.3,0.8c-0.2,0.2-0.6,0.3-1.1,0.3h-2.9c-0.5,0-0.9-0.1-1.1-0.3c-0.2-0.2-0.3-0.4-0.3-0.8
	c0-0.3,0.1-0.6,0.3-0.8c0.2-0.2,0.6-0.3,1.1-0.3h0.5L504.8,171.9z M503.9,169.8l-1.7-4.1l-1.7,4.1H503.9z M512.6,170.1v3.1h5.3v-1.1
	c0-0.5,0.1-0.9,0.3-1.1c0.2-0.2,0.4-0.3,0.8-0.3c0.3,0,0.5,0.1,0.7,0.3c0.2,0.2,0.3,0.6,0.3,1.1v3.2h-9.8c-0.5,0-0.8-0.1-1.1-0.3
	c-0.2-0.2-0.3-0.4-0.3-0.8c0-0.3,0.1-0.6,0.3-0.8c0.2-0.2,0.6-0.3,1.1-0.3h0.3V165h-0.3c-0.5,0-0.8-0.1-1.1-0.3
	c-0.2-0.2-0.3-0.4-0.3-0.8s0.1-0.6,0.3-0.8c0.2-0.2,0.6-0.3,1.1-0.3h9.3v3.2c0,0.5-0.1,0.8-0.3,1.1c-0.2,0.2-0.4,0.3-0.8,0.3
	c-0.3,0-0.6-0.1-0.8-0.3s-0.3-0.6-0.3-1.1v-1.1h-4.8v3h1.8c0-0.5,0.1-0.9,0.2-1c0.2-0.3,0.5-0.5,0.9-0.5c0.3,0,0.5,0.1,0.7,0.3
	s0.3,0.6,0.3,1v2.4c0,0.4-0.1,0.7-0.2,0.9c-0.2,0.3-0.5,0.5-0.9,0.5s-0.7-0.2-0.9-0.5c-0.1-0.2-0.2-0.5-0.2-1.1h-1.6V170.1z"/>
<path class="st3" d="M591.3,167.5l49-0.5"/>
<path class="st8" d="M591.3,167.5l40.5-0.4"/>
<path class="st9" d="M631.8,169.4l6.4-2.4l-6.4-2.3V169.4z"/>
<path class="st3" d="M312.9,167.4h44.9"/>
<path class="st8" d="M312.9,167.4h36.4"/>
<path class="st9" d="M349.3,169.7l6.4-2.3l-6.4-2.3V169.7z"/>
<path class="st3" d="M649.7,149.6h85.8V185h-85.8V149.6z"/>
<path class="st4" d="M661.2,173.8V159h2.9l3.5,10.5c0.3,1,0.6,1.7,0.7,2.2c0.2-0.5,0.4-1.3,0.8-2.4l3.6-10.3h2.6v14.8h-1.9v-12.4
	l-4.3,12.4h-1.8l-4.3-12.7v12.7H661.2z M676.9,173.8l5.7-14.8h2.1l6.1,14.8h-2.2l-1.7-4.5h-6.2l-1.6,4.5H676.9z M681.1,167.7h5
	l-1.5-4.1c-0.5-1.2-0.8-2.3-1.1-3.1c-0.2,1-0.5,1.9-0.8,2.8L681.1,167.7z M692.4,173.8V159h10.7v1.7h-8.8v4.5h8.2v1.7h-8.2v5.1h9.1
	v1.7h-11V173.8z"/>
<path class="st3" d="M649.7,106.8h85.8v35.4h-85.8V106.8z"/>
<path class="st4" d="M661,131v-14.8h1.8v5.3c0.9-1,1.9-1.5,3.2-1.5c0.8,0,1.5,0.2,2.1,0.5s1,0.7,1.3,1.3c0.3,0.5,0.4,1.3,0.4,2.4
	v6.8H668v-6.8c0-0.9-0.2-1.6-0.6-2c-0.4-0.4-1-0.6-1.7-0.6c-0.5,0-1.1,0.1-1.5,0.4c-0.5,0.3-0.8,0.7-1,1.2s-0.3,1.1-0.3,2v5.9
	L661,131L661,131z M679.5,131v-1.3c-0.7,1.1-1.7,1.6-3,1.6c-0.9,0-1.6-0.2-2.4-0.7c-0.7-0.5-1.3-1.1-1.7-2c-0.4-0.9-0.6-1.8-0.6-2.9
	c0-1.1,0.2-2,0.5-2.9c0.4-0.9,0.9-1.5,1.6-2c0.7-0.5,1.5-0.7,2.4-0.7c0.6,0,1.2,0.1,1.7,0.4c0.5,0.3,0.9,0.6,1.2,1v-5.3h1.8V131
	L679.5,131L679.5,131z M673.7,125.6c0,1.4,0.3,2.4,0.9,3.1c0.6,0.7,1.3,1,2.1,1s1.5-0.3,2-1c0.6-0.6,0.8-1.6,0.8-3
	c0-1.5-0.3-2.6-0.9-3.2c-0.6-0.7-1.3-1-2.1-1s-1.5,0.3-2,1S673.7,124.2,673.7,125.6z M684.5,131v-9.3h-1.6v-1.4h1.6v-1.2
	c0-0.7,0.1-1.3,0.2-1.6c0.2-0.5,0.5-0.9,0.9-1.2s1.1-0.4,1.9-0.4c0.5,0,1.1,0.1,1.7,0.2l-0.3,1.6c-0.4-0.1-0.7-0.1-1.1-0.1
	c-0.5,0-0.9,0.1-1.2,0.4c-0.2,0.2-0.3,0.7-0.3,1.3v1h2.1v1.4h-2.1v9.3H684.5z M689.3,127.1l1.9-0.2c0.1,0.9,0.5,1.6,1,2.1
	s1.1,0.7,1.9,0.7c0.9,0,1.6-0.3,2.2-1c0.6-0.7,0.9-1.5,0.9-2.6c0-1-0.3-1.9-0.9-2.5c-0.6-0.6-1.4-0.9-2.3-0.9
	c-0.6,0-1.1,0.1-1.6,0.4c-0.5,0.3-0.8,0.6-1.1,1l-1.7-0.2l1.4-7.6h7.4v1.7h-5.9l-0.8,4c0.9-0.6,1.8-0.9,2.8-0.9
	c1.3,0,2.4,0.4,3.3,1.3c0.9,0.9,1.3,2,1.3,3.5c0,1.4-0.4,2.5-1.2,3.5c-1,1.2-2.3,1.8-3.9,1.8c-1.4,0-2.5-0.4-3.3-1.1
	C689.9,129.4,689.4,128.4,689.3,127.1z"/>
<path class="st3" d="M374.8,51.1h248v59.5h-248V51.1z"/>
<path class="st10" d="M403.2,80.6c0,1.5-0.2,2.8-0.6,3.9c-0.4,1.1-1,2-1.7,2.7c-0.8,0.7-1.7,1.2-2.7,1.5c-1.1,0.3-2.3,0.5-3.8,0.5
	h-4c-0.3,0-0.5-0.1-0.7-0.2c-0.2-0.2-0.3-0.4-0.3-0.8V73.6c0-0.4,0.1-0.7,0.3-0.8c0.2-0.2,0.4-0.2,0.7-0.2h4.3
	c1.5,0,2.8,0.2,3.8,0.5s1.9,0.9,2.6,1.5c0.7,0.7,1.2,1.5,1.6,2.5C403,78.2,403.2,79.3,403.2,80.6z M399.7,80.8
	c0-0.8-0.1-1.5-0.3-2.2c-0.2-0.7-0.5-1.3-0.9-1.7c-0.4-0.5-0.9-0.9-1.6-1.2c-0.6-0.3-1.5-0.4-2.5-0.4h-1.7v11.3h1.8
	c0.9,0,1.7-0.1,2.3-0.4c0.6-0.3,1.2-0.6,1.6-1.1s0.7-1.1,1-1.8C399.6,82.6,399.7,81.7,399.7,80.8z M415.6,88.8c0,0.1,0,0.2-0.1,0.3
	s-0.2,0.1-0.4,0.1c-0.2,0-0.4,0-0.8,0s-0.7,0-0.8,0c-0.2,0-0.3-0.1-0.4-0.1c-0.1-0.1-0.1-0.2-0.1-0.3v-0.9c-0.5,0.5-1,0.9-1.6,1.2
	s-1.3,0.4-2,0.4c-0.6,0-1.2-0.1-1.7-0.2c-0.5-0.1-0.9-0.4-1.3-0.7s-0.7-0.7-0.9-1.2c-0.2-0.5-0.3-1-0.3-1.6c0-0.7,0.1-1.2,0.4-1.7
	s0.7-0.9,1.2-1.2s1.2-0.6,1.9-0.7c0.8-0.2,1.7-0.2,2.7-0.2h1.1v-0.7c0-0.4,0-0.7-0.1-1s-0.2-0.5-0.4-0.7c-0.2-0.2-0.4-0.3-0.7-0.4
	c-0.3-0.1-0.6-0.1-1-0.1c-0.5,0-1,0.1-1.5,0.2c-0.4,0.1-0.8,0.3-1.1,0.4c-0.3,0.1-0.6,0.3-0.8,0.4c-0.2,0.1-0.4,0.2-0.5,0.2
	s-0.2,0-0.2-0.1c-0.1-0.1-0.1-0.1-0.2-0.3c0-0.1-0.1-0.3-0.1-0.4c0-0.2,0-0.3,0-0.5c0-0.3,0-0.5,0.1-0.6c0-0.2,0.1-0.3,0.2-0.4
	c0.1-0.1,0.3-0.3,0.6-0.4c0.3-0.2,0.7-0.3,1.1-0.4c0.4-0.1,0.9-0.2,1.3-0.3c0.5-0.1,1-0.1,1.5-0.1c0.9,0,1.7,0.1,2.3,0.3
	c0.6,0.2,1.2,0.4,1.6,0.8c0.4,0.4,0.7,0.8,0.9,1.4c0.2,0.6,0.3,1.3,0.3,2.1v7.4H415.6z M412.4,83.9h-1.2c-0.5,0-1,0-1.3,0.1
	c-0.4,0.1-0.7,0.2-0.9,0.4c-0.2,0.1-0.4,0.3-0.5,0.6c-0.1,0.2-0.2,0.5-0.2,0.8c0,0.5,0.1,0.8,0.4,1.1s0.7,0.4,1.3,0.4
	c0.5,0,0.9-0.1,1.3-0.4c0.4-0.2,0.8-0.6,1.2-1L412.4,83.9L412.4,83.9z M425.4,87.7c0,0.4,0,0.7-0.1,0.9c0,0.2-0.1,0.3-0.2,0.4
	c-0.1,0.1-0.2,0.1-0.3,0.2c-0.1,0.1-0.3,0.1-0.5,0.2c-0.2,0-0.4,0.1-0.6,0.1s-0.5,0-0.7,0c-0.6,0-1.2-0.1-1.7-0.2
	c-0.5-0.2-0.9-0.4-1.2-0.8c-0.3-0.4-0.5-0.8-0.7-1.3c-0.1-0.5-0.2-1.1-0.2-1.8v-5.9h-1.4c-0.2,0-0.3-0.1-0.4-0.3s-0.1-0.5-0.1-1
	c0-0.3,0-0.5,0-0.6c0-0.2,0.1-0.3,0.1-0.4c0-0.1,0.1-0.2,0.2-0.2s0.2-0.1,0.2-0.1h1.4v-2.6c0-0.1,0-0.2,0.1-0.2
	c0-0.1,0.1-0.1,0.2-0.2c0.1,0,0.3-0.1,0.5-0.1s0.5,0,0.8,0s0.6,0,0.8,0c0.2,0,0.4,0,0.5,0.1c0.1,0,0.2,0.1,0.2,0.2
	c0.1,0.1,0.1,0.1,0.1,0.2v2.6h2.5c0.1,0,0.2,0,0.2,0.1c0.1,0,0.1,0.1,0.2,0.2c0,0.1,0.1,0.2,0.1,0.4s0,0.4,0,0.6c0,0.5,0,0.8-0.1,1
	s-0.2,0.3-0.4,0.3h-2.5v5.4c0,0.6,0.1,1.1,0.3,1.4c0.2,0.3,0.6,0.5,1.1,0.5c0.2,0,0.3,0,0.5,0c0.1,0,0.3-0.1,0.4-0.1
	s0.2-0.1,0.3-0.1c0.1,0,0.1,0,0.2,0h0.1c0.1,0,0.1,0.1,0.1,0.2c0,0.1,0.1,0.2,0.1,0.4C425.4,87.2,425.4,87.4,425.4,87.7z
	 M437.3,88.8c0,0.1,0,0.2-0.1,0.3s-0.2,0.1-0.4,0.1c-0.2,0-0.4,0-0.8,0s-0.7,0-0.8,0c-0.2,0-0.3-0.1-0.4-0.1
	c-0.1-0.1-0.1-0.2-0.1-0.3v-0.9c-0.5,0.5-1,0.9-1.6,1.2s-1.3,0.4-2,0.4c-0.6,0-1.2-0.1-1.7-0.2c-0.5-0.1-0.9-0.4-1.3-0.7
	s-0.7-0.7-0.9-1.2c-0.2-0.5-0.3-1-0.3-1.6c0-0.7,0.1-1.2,0.4-1.7s0.7-0.9,1.2-1.2s1.2-0.6,1.9-0.7c0.8-0.2,1.7-0.2,2.7-0.2h1.1v-0.7
	c0-0.4,0-0.7-0.1-1s-0.2-0.5-0.4-0.7c-0.2-0.2-0.4-0.3-0.7-0.4c-0.3-0.1-0.6-0.1-1-0.1c-0.5,0-1,0.1-1.5,0.2
	c-0.4,0.1-0.8,0.3-1.1,0.4c-0.3,0.1-0.6,0.3-0.8,0.4c-0.2,0.1-0.4,0.2-0.5,0.2s-0.2,0-0.2-0.1c-0.1-0.1-0.1-0.1-0.2-0.3
	c0-0.1-0.1-0.3-0.1-0.4c0-0.2,0-0.3,0-0.5c0-0.3,0-0.5,0.1-0.6c0-0.2,0.1-0.3,0.2-0.4c0.1-0.1,0.3-0.3,0.6-0.4
	c0.3-0.2,0.7-0.3,1.1-0.4c0.4-0.1,0.9-0.2,1.3-0.3c0.5-0.1,1-0.1,1.5-0.1c0.9,0,1.7,0.1,2.3,0.3c0.6,0.2,1.2,0.4,1.6,0.8
	c0.4,0.4,0.7,0.8,0.9,1.4c0.2,0.6,0.3,1.3,0.3,2.1v7.4H437.3z M434.1,83.9h-1.2c-0.5,0-1,0-1.3,0.1c-0.4,0.1-0.7,0.2-0.9,0.4
	c-0.2,0.1-0.4,0.3-0.5,0.6c-0.1,0.2-0.2,0.5-0.2,0.8c0,0.5,0.1,0.8,0.4,1.1s0.7,0.4,1.3,0.4c0.5,0,0.9-0.1,1.3-0.4
	c0.4-0.2,0.8-0.6,1.2-1L434.1,83.9L434.1,83.9z M464.8,88.8c0,0.1,0,0.2-0.1,0.2c0,0.1-0.1,0.1-0.3,0.2c-0.1,0-0.3,0.1-0.5,0.1
	s-0.5,0-0.8,0s-0.6,0-0.8,0c-0.2,0-0.4,0-0.5-0.1c-0.1,0-0.2-0.1-0.3-0.2c0-0.1-0.1-0.2-0.1-0.2V82c0-0.4,0-0.7-0.1-1.1
	c-0.1-0.3-0.2-0.6-0.3-0.8c-0.1-0.2-0.3-0.4-0.6-0.5c-0.2-0.1-0.5-0.2-0.8-0.2c-0.4,0-0.8,0.1-1.2,0.4c-0.4,0.3-0.8,0.7-1.3,1.3v7.7
	c0,0.1,0,0.2-0.1,0.2c0,0.1-0.1,0.1-0.3,0.2c-0.1,0-0.3,0.1-0.5,0.1s-0.5,0-0.8,0s-0.6,0-0.8,0c-0.2,0-0.4,0-0.5-0.1
	c-0.1,0-0.2-0.1-0.3-0.2c0-0.1-0.1-0.2-0.1-0.2V82c0-0.4,0-0.7-0.1-1.1c-0.1-0.3-0.2-0.6-0.3-0.8c-0.1-0.2-0.3-0.4-0.6-0.5
	c-0.2-0.1-0.5-0.2-0.8-0.2c-0.4,0-0.8,0.1-1.2,0.4c-0.4,0.3-0.8,0.7-1.3,1.3v7.7c0,0.1,0,0.2-0.1,0.2c0,0.1-0.1,0.1-0.3,0.2
	c-0.1,0-0.3,0.1-0.5,0.1s-0.5,0-0.8,0s-0.6,0-0.8,0c-0.2,0-0.4,0-0.5-0.1c-0.1,0-0.2-0.1-0.3-0.2c0-0.1-0.1-0.2-0.1-0.2V77.3
	c0-0.1,0-0.2,0.1-0.2c0-0.1,0.1-0.1,0.2-0.2c0.1,0,0.3-0.1,0.4-0.1c0.2,0,0.4,0,0.7,0c0.3,0,0.5,0,0.7,0s0.3,0,0.4,0.1
	c0.1,0,0.2,0.1,0.2,0.2c0,0.1,0.1,0.1,0.1,0.2v1.3c0.6-0.7,1.3-1.2,1.9-1.5c0.6-0.4,1.3-0.5,2-0.5c0.5,0,0.9,0.1,1.3,0.2
	c0.4,0.1,0.7,0.2,1,0.4s0.5,0.4,0.8,0.7c0.2,0.3,0.4,0.5,0.6,0.9c0.3-0.4,0.7-0.7,1-1s0.7-0.5,1-0.6c0.3-0.2,0.6-0.3,1-0.4
	c0.3-0.1,0.6-0.1,1-0.1c0.8,0,1.4,0.1,1.9,0.4c0.5,0.3,1,0.6,1.3,1s0.6,1,0.7,1.5c0.1,0.6,0.2,1.2,0.2,1.9v7.3H464.8z M477.8,88.8
	c0,0.1,0,0.2-0.1,0.3s-0.2,0.1-0.4,0.1c-0.2,0-0.4,0-0.8,0s-0.7,0-0.8,0c-0.2,0-0.3-0.1-0.4-0.1c-0.1-0.1-0.1-0.2-0.1-0.3v-0.9
	c-0.5,0.5-1,0.9-1.6,1.2s-1.3,0.4-2,0.4c-0.6,0-1.2-0.1-1.7-0.2c-0.5-0.1-0.9-0.4-1.3-0.7s-0.7-0.7-0.9-1.2c-0.2-0.5-0.3-1-0.3-1.6
	c0-0.7,0.1-1.2,0.4-1.7s0.7-0.9,1.2-1.2s1.2-0.6,1.9-0.7c0.8-0.2,1.7-0.2,2.7-0.2h1.1v-0.7c0-0.4,0-0.7-0.1-1s-0.2-0.5-0.4-0.7
	c-0.2-0.2-0.4-0.3-0.7-0.4c-0.3-0.1-0.6-0.1-1-0.1c-0.5,0-1,0.1-1.5,0.2c-0.4,0.1-0.8,0.3-1.1,0.4c-0.3,0.1-0.6,0.3-0.8,0.4
	c-0.2,0.1-0.4,0.2-0.5,0.2s-0.2,0-0.2-0.1c-0.1-0.1-0.1-0.1-0.2-0.3c0-0.1-0.1-0.3-0.1-0.4c0-0.2,0-0.3,0-0.5c0-0.3,0-0.5,0.1-0.6
	c0-0.2,0.1-0.3,0.2-0.4c0.1-0.1,0.3-0.3,0.6-0.4c0.3-0.2,0.7-0.3,1.1-0.4c0.4-0.1,0.9-0.2,1.3-0.3c0.5-0.1,1-0.1,1.5-0.1
	c0.9,0,1.7,0.1,2.3,0.3c0.6,0.2,1.2,0.4,1.6,0.8c0.4,0.4,0.7,0.8,0.9,1.4c0.2,0.6,0.3,1.3,0.3,2.1v7.4H477.8z M474.6,83.9h-1.2
	c-0.5,0-1,0-1.3,0.1c-0.4,0.1-0.7,0.2-0.9,0.4c-0.2,0.1-0.4,0.3-0.5,0.6c-0.1,0.2-0.2,0.5-0.2,0.8c0,0.5,0.1,0.8,0.4,1.1
	s0.7,0.4,1.3,0.4c0.5,0,0.9-0.1,1.3-0.4c0.4-0.2,0.8-0.6,1.2-1L474.6,83.9L474.6,83.9z M492,88.8c0,0.1,0,0.2-0.1,0.2
	c0,0.1-0.1,0.1-0.2,0.2s-0.3,0.1-0.5,0.1s-0.5,0-0.8,0s-0.6,0-0.8,0c-0.2,0-0.4,0-0.5-0.1s-0.2-0.1-0.3-0.2c0-0.1-0.1-0.2-0.1-0.2
	v-6.6c0-0.5,0-1-0.1-1.3s-0.2-0.6-0.4-0.8c-0.1-0.2-0.3-0.4-0.6-0.5c-0.2-0.1-0.5-0.2-0.9-0.2s-0.8,0.1-1.3,0.4
	c-0.4,0.3-0.8,0.7-1.3,1.3v7.7c0,0.1,0,0.2-0.1,0.2c0,0.1-0.1,0.1-0.3,0.2c-0.1,0-0.3,0.1-0.5,0.1s-0.5,0-0.8,0s-0.6,0-0.8,0
	c-0.2,0-0.4,0-0.5-0.1c-0.1,0-0.2-0.1-0.3-0.2c0-0.1-0.1-0.2-0.1-0.2V77.3c0-0.1,0-0.2,0.1-0.2c0-0.1,0.1-0.1,0.2-0.2
	c0.1,0,0.3-0.1,0.4-0.1c0.2,0,0.4,0,0.7,0c0.3,0,0.5,0,0.7,0s0.3,0,0.4,0.1c0.1,0,0.2,0.1,0.2,0.2c0,0.1,0.1,0.1,0.1,0.2v1.3
	c0.6-0.7,1.3-1.2,1.9-1.5c0.7-0.4,1.4-0.5,2.1-0.5c0.8,0,1.4,0.1,2,0.4c0.5,0.3,1,0.6,1.3,1s0.6,1,0.7,1.5c0.1,0.6,0.2,1.3,0.2,2.1
	v7.2H492z M498.4,88.8c0,0.1,0,0.2-0.1,0.2c0,0.1-0.1,0.1-0.3,0.2c-0.1,0-0.3,0.1-0.5,0.1s-0.5,0-0.8,0s-0.6,0-0.8,0
	c-0.2,0-0.4,0-0.5-0.1c-0.1,0-0.2-0.1-0.3-0.2c0-0.1-0.1-0.2-0.1-0.2V77.3c0-0.1,0-0.2,0.1-0.2c0.1-0.1,0.1-0.1,0.3-0.2
	c0.1-0.1,0.3-0.1,0.5-0.1s0.5,0,0.8,0s0.6,0,0.8,0c0.2,0,0.4,0.1,0.5,0.1s0.2,0.1,0.3,0.2c0.1,0.1,0.1,0.1,0.1,0.2V88.8z
	 M498.7,73.4c0,0.6-0.1,1.1-0.4,1.3c-0.3,0.3-0.8,0.4-1.5,0.4s-1.2-0.1-1.5-0.4c-0.3-0.2-0.4-0.7-0.4-1.3s0.1-1.1,0.4-1.3
	c0.3-0.3,0.8-0.4,1.5-0.4s1.2,0.1,1.4,0.4C498.5,72.3,498.7,72.8,498.7,73.4z M513.2,82.9c0,1-0.1,1.9-0.3,2.8
	c-0.2,0.8-0.5,1.5-1,2.1c-0.4,0.6-0.9,1-1.6,1.3c-0.6,0.3-1.3,0.5-2.1,0.5c-0.3,0-0.6,0-0.9-0.1s-0.5-0.2-0.8-0.3s-0.5-0.3-0.8-0.5
	s-0.5-0.4-0.8-0.7v5.4c0,0.1,0,0.1-0.1,0.2c0,0.1-0.1,0.1-0.3,0.2c-0.1,0-0.3,0.1-0.5,0.1s-0.5,0-0.8,0s-0.6,0-0.8,0
	c-0.2,0-0.4-0.1-0.5-0.1s-0.2-0.1-0.3-0.2c0-0.1-0.1-0.1-0.1-0.2V77.3c0-0.1,0-0.2,0.1-0.2c0-0.1,0.1-0.1,0.2-0.2
	c0.1,0,0.3-0.1,0.4-0.1c0.2,0,0.4,0,0.7,0c0.3,0,0.5,0,0.6,0c0.2,0,0.3,0,0.4,0.1c0.1,0,0.2,0.1,0.2,0.2c0,0.1,0.1,0.1,0.1,0.2v1.3
	c0.3-0.3,0.6-0.6,1-0.9c0.3-0.3,0.7-0.5,1-0.6c0.3-0.2,0.7-0.3,1-0.4c0.4-0.1,0.7-0.1,1.1-0.1c0.9,0,1.6,0.2,2.2,0.5
	s1.1,0.8,1.4,1.3c0.4,0.6,0.7,1.2,0.8,2C513.2,81.2,513.2,82,513.2,82.9z M509.9,83.1c0-0.5,0-1-0.1-1.4c-0.1-0.5-0.2-0.9-0.4-1.2
	c-0.2-0.4-0.4-0.6-0.7-0.8c-0.3-0.2-0.6-0.3-1.1-0.3c-0.2,0-0.4,0-0.6,0.1s-0.4,0.2-0.6,0.3s-0.4,0.3-0.7,0.6
	c-0.2,0.2-0.5,0.5-0.7,0.9v3.8c0.5,0.6,0.9,1,1.3,1.3s0.8,0.5,1.3,0.5c0.4,0,0.8-0.1,1.1-0.3c0.3-0.2,0.5-0.5,0.7-0.8
	c0.2-0.4,0.3-0.7,0.4-1.2C509.8,84,509.9,83.5,509.9,83.1z M526.8,88.8c0,0.1,0,0.2-0.1,0.2c0,0.1-0.1,0.1-0.2,0.2
	c-0.1,0-0.2,0.1-0.4,0.1s-0.4,0-0.7,0s-0.5,0-0.7,0s-0.3,0-0.4-0.1c-0.1,0-0.2-0.1-0.2-0.2c0-0.1-0.1-0.2-0.1-0.2v-1.3
	c-0.6,0.7-1.3,1.2-1.9,1.5c-0.6,0.3-1.3,0.5-2,0.5c-0.8,0-1.4-0.1-2-0.4c-0.5-0.3-1-0.6-1.3-1.1c-0.3-0.4-0.6-1-0.7-1.5
	c-0.1-0.6-0.2-1.3-0.2-2.2v-7c0-0.1,0-0.2,0.1-0.2c0-0.1,0.1-0.1,0.2-0.2c0.1,0,0.3-0.1,0.5-0.1s0.5,0,0.8,0s0.6,0,0.8,0
	s0.4,0,0.5,0.1c0.1,0,0.2,0.1,0.3,0.2c0.1,0.1,0.1,0.1,0.1,0.2v6.5c0,0.6,0,1.1,0.1,1.4c0.1,0.3,0.2,0.6,0.4,0.8s0.4,0.4,0.6,0.5
	c0.3,0.1,0.5,0.2,0.9,0.2s0.8-0.1,1.2-0.4c0.4-0.3,0.9-0.8,1.3-1.3v-7.7c0-0.1,0-0.2,0.1-0.2c0-0.1,0.1-0.1,0.2-0.2
	c0.1,0,0.3-0.1,0.5-0.1s0.5,0,0.8,0s0.6,0,0.8,0s0.4,0,0.5,0.1c0.1,0,0.2,0.1,0.3,0.2c0.1,0.1,0.1,0.1,0.1,0.2v11.5H526.8z
	 M533.3,88.8c0,0.1,0,0.2-0.1,0.2c0,0.1-0.1,0.1-0.3,0.2c-0.1,0-0.3,0.1-0.5,0.1s-0.5,0-0.8,0s-0.6,0-0.8,0s-0.4,0-0.5-0.1
	c-0.1,0-0.2-0.1-0.3-0.2c0-0.1-0.1-0.2-0.1-0.2V71.9c0-0.1,0-0.2,0.1-0.2c0.1-0.1,0.1-0.1,0.3-0.2c0.1,0,0.3-0.1,0.5-0.1
	s0.5,0,0.8,0s0.6,0,0.8,0s0.4,0.1,0.5,0.1s0.2,0.1,0.3,0.2c0.1,0.1,0.1,0.2,0.1,0.2V88.8z M546.3,88.8c0,0.1,0,0.2-0.1,0.3
	s-0.2,0.1-0.4,0.1s-0.4,0-0.8,0c-0.4,0-0.7,0-0.8,0c-0.2,0-0.3-0.1-0.4-0.1c-0.1-0.1-0.1-0.2-0.1-0.3v-0.9c-0.5,0.5-1,0.9-1.6,1.2
	s-1.3,0.4-2,0.4c-0.6,0-1.2-0.1-1.7-0.2c-0.5-0.1-0.9-0.4-1.3-0.7c-0.4-0.3-0.7-0.7-0.9-1.2s-0.3-1-0.3-1.6c0-0.7,0.1-1.2,0.4-1.7
	c0.3-0.5,0.7-0.9,1.2-1.2s1.2-0.6,1.9-0.7c0.8-0.2,1.7-0.2,2.7-0.2h1.1v-0.7c0-0.4,0-0.7-0.1-1s-0.2-0.5-0.4-0.7s-0.4-0.3-0.7-0.4
	c-0.3-0.1-0.6-0.1-1-0.1c-0.5,0-1,0.1-1.5,0.2c-0.4,0.1-0.8,0.3-1.1,0.4c-0.3,0.1-0.6,0.3-0.8,0.4c-0.2,0.1-0.4,0.2-0.5,0.2
	s-0.2,0-0.2-0.1c-0.1-0.1-0.1-0.1-0.2-0.3c0-0.1-0.1-0.3-0.1-0.4c0-0.2,0-0.3,0-0.5c0-0.3,0-0.5,0.1-0.6c0-0.2,0.1-0.3,0.2-0.4
	c0.1-0.1,0.3-0.3,0.6-0.4c0.3-0.2,0.7-0.3,1.1-0.4c0.4-0.1,0.9-0.2,1.3-0.3c0.5-0.1,1-0.1,1.5-0.1c0.9,0,1.7,0.1,2.3,0.3
	s1.2,0.4,1.6,0.8c0.4,0.4,0.7,0.8,0.9,1.4c0.2,0.6,0.3,1.3,0.3,2.1v7.4H546.3z M543.1,83.9h-1.2c-0.5,0-1,0-1.3,0.1
	c-0.4,0.1-0.7,0.2-0.9,0.4c-0.2,0.1-0.4,0.3-0.5,0.6c-0.1,0.2-0.2,0.5-0.2,0.8c0,0.5,0.1,0.8,0.4,1.1c0.3,0.3,0.7,0.4,1.3,0.4
	c0.5,0,0.9-0.1,1.3-0.4c0.4-0.2,0.8-0.6,1.2-1L543.1,83.9L543.1,83.9z M556.1,87.7c0,0.4,0,0.7-0.1,0.9c0,0.2-0.1,0.3-0.2,0.4
	c-0.1,0.1-0.2,0.1-0.3,0.2c-0.1,0.1-0.3,0.1-0.5,0.2c-0.2,0-0.4,0.1-0.6,0.1c-0.2,0-0.5,0-0.7,0c-0.6,0-1.2-0.1-1.7-0.2
	c-0.5-0.2-0.9-0.4-1.2-0.8c-0.3-0.4-0.5-0.8-0.7-1.3c-0.1-0.5-0.2-1.1-0.2-1.8v-5.9h-1.4c-0.2,0-0.3-0.1-0.4-0.3
	c-0.1-0.2-0.1-0.5-0.1-1c0-0.3,0-0.5,0-0.6c0-0.2,0.1-0.3,0.1-0.4c0-0.1,0.1-0.2,0.2-0.2c0.1,0,0.2-0.1,0.2-0.1h1.4v-2.6
	c0-0.1,0-0.2,0.1-0.2c0-0.1,0.1-0.1,0.2-0.2c0.1,0,0.3-0.1,0.5-0.1s0.5,0,0.8,0s0.6,0,0.8,0s0.4,0,0.5,0.1c0.1,0,0.2,0.1,0.2,0.2
	c0.1,0.1,0.1,0.1,0.1,0.2v2.6h2.5c0.1,0,0.2,0,0.2,0.1c0.1,0,0.1,0.1,0.2,0.2c0,0.1,0.1,0.2,0.1,0.4s0,0.4,0,0.6c0,0.5,0,0.8-0.1,1
	s-0.2,0.3-0.4,0.3h-2.5v5.4c0,0.6,0.1,1.1,0.3,1.4c0.2,0.3,0.6,0.5,1.1,0.5c0.2,0,0.3,0,0.5,0c0.1,0,0.3-0.1,0.4-0.1
	c0.1,0,0.2-0.1,0.3-0.1s0.1,0,0.2,0h0.1c0.1,0,0.1,0.1,0.1,0.2c0,0.1,0.1,0.2,0.1,0.4C556.1,87.2,556.1,87.4,556.1,87.7z
	 M561.7,88.8c0,0.1,0,0.2-0.1,0.2c0,0.1-0.1,0.1-0.3,0.2c-0.1,0-0.3,0.1-0.5,0.1s-0.5,0-0.8,0s-0.6,0-0.8,0s-0.4,0-0.5-0.1
	c-0.1,0-0.2-0.1-0.3-0.2c0-0.1-0.1-0.2-0.1-0.2V77.3c0-0.1,0-0.2,0.1-0.2c0.1-0.1,0.1-0.1,0.3-0.2c0.1-0.1,0.3-0.1,0.5-0.1
	s0.5,0,0.8,0s0.6,0,0.8,0s0.4,0.1,0.5,0.1s0.2,0.1,0.3,0.2c0.1,0.1,0.1,0.1,0.1,0.2V88.8z M561.9,73.4c0,0.6-0.1,1.1-0.4,1.3
	c-0.3,0.3-0.8,0.4-1.5,0.4s-1.2-0.1-1.5-0.4c-0.3-0.2-0.4-0.7-0.4-1.3s0.1-1.1,0.4-1.3c0.3-0.3,0.8-0.4,1.5-0.4s1.2,0.1,1.4,0.4
	C561.8,72.3,561.9,72.8,561.9,73.4z M576.6,82.9c0,1-0.1,1.9-0.4,2.7c-0.3,0.8-0.6,1.5-1.2,2.1c-0.5,0.6-1.2,1-2,1.3
	s-1.7,0.5-2.8,0.5c-1,0-1.9-0.1-2.7-0.4c-0.8-0.3-1.4-0.7-1.9-1.2s-0.9-1.2-1.1-2c-0.2-0.8-0.4-1.7-0.4-2.7s0.1-1.9,0.4-2.7
	c0.3-0.8,0.7-1.5,1.2-2.1s1.2-1,2-1.3s1.7-0.5,2.8-0.5c1,0,1.9,0.1,2.7,0.4c0.8,0.3,1.4,0.7,1.9,1.2s0.9,1.2,1.1,2
	C576.4,81,576.6,81.9,576.6,82.9z M573.2,83.1c0-0.6,0-1.1-0.1-1.6s-0.2-0.9-0.5-1.2c-0.2-0.4-0.5-0.6-0.8-0.8
	c-0.4-0.2-0.8-0.3-1.3-0.3s-0.9,0.1-1.3,0.3c-0.4,0.2-0.6,0.4-0.9,0.8c-0.2,0.3-0.4,0.8-0.5,1.2c-0.1,0.5-0.2,1-0.2,1.6
	s0,1.1,0.1,1.6s0.3,0.9,0.5,1.2c0.2,0.4,0.5,0.6,0.8,0.8c0.4,0.2,0.8,0.3,1.3,0.3s0.9-0.1,1.3-0.3c0.4-0.2,0.7-0.4,0.9-0.8
	c0.2-0.3,0.4-0.7,0.5-1.2C573.2,84.2,573.2,83.7,573.2,83.1z M590.1,88.8c0,0.1,0,0.2-0.1,0.2c0,0.1-0.1,0.1-0.2,0.2
	s-0.3,0.1-0.5,0.1s-0.5,0-0.8,0s-0.6,0-0.8,0s-0.4,0-0.5-0.1s-0.2-0.1-0.3-0.2c0-0.1-0.1-0.2-0.1-0.2v-6.6c0-0.5,0-1-0.1-1.3
	s-0.2-0.6-0.4-0.8c-0.1-0.2-0.3-0.4-0.6-0.5c-0.2-0.1-0.5-0.2-0.9-0.2s-0.8,0.1-1.3,0.4c-0.4,0.3-0.8,0.7-1.3,1.3v7.7
	c0,0.1,0,0.2-0.1,0.2c0,0.1-0.1,0.1-0.3,0.2c-0.1,0-0.3,0.1-0.5,0.1s-0.5,0-0.8,0s-0.6,0-0.8,0s-0.4,0-0.5-0.1
	c-0.1,0-0.2-0.1-0.3-0.2c0-0.1-0.1-0.2-0.1-0.2V77.3c0-0.1,0-0.2,0.1-0.2c0-0.1,0.1-0.1,0.2-0.2c0.1,0,0.3-0.1,0.4-0.1
	c0.2,0,0.4,0,0.7,0s0.5,0,0.7,0s0.3,0,0.4,0.1c0.1,0,0.2,0.1,0.2,0.2c0,0.1,0.1,0.1,0.1,0.2v1.3c0.6-0.7,1.3-1.2,1.9-1.5
	c0.7-0.4,1.4-0.5,2.1-0.5c0.8,0,1.4,0.1,2,0.4c0.5,0.3,1,0.6,1.3,1s0.6,1,0.7,1.5c0.1,0.6,0.2,1.3,0.2,2.1v7.2H590.1z"/>
<path class="st3" d="M374.8,326.7h248v59.5h-248V326.7z"/>
<path class="st11" d="M403.2,356.2c0,1.5-0.2,2.8-0.6,3.9s-1,2-1.7,2.7c-0.8,0.7-1.7,1.2-2.7,1.5c-1.1,0.3-2.3,0.5-3.8,0.5h-4
	c-0.3,0-0.5-0.1-0.7-0.2c-0.2-0.2-0.3-0.4-0.3-0.8v-14.6c0-0.4,0.1-0.7,0.3-0.8c0.2-0.2,0.4-0.2,0.7-0.2h4.3c1.5,0,2.8,0.2,3.8,0.5
	s1.9,0.9,2.6,1.5c0.7,0.7,1.2,1.5,1.6,2.5C403,353.7,403.2,354.9,403.2,356.2z M399.7,356.3c0-0.8-0.1-1.5-0.3-2.2
	c-0.2-0.7-0.5-1.3-0.9-1.7c-0.4-0.5-0.9-0.9-1.6-1.2c-0.6-0.3-1.5-0.4-2.5-0.4h-1.7v11.3h1.8c0.9,0,1.7-0.1,2.3-0.4
	c0.6-0.3,1.2-0.6,1.6-1.1s0.7-1.1,1-1.8C399.6,358.1,399.7,357.3,399.7,356.3z M415.6,364.4c0,0.1,0,0.2-0.1,0.3
	c-0.1,0.1-0.2,0.1-0.4,0.1c-0.2,0-0.4,0-0.8,0s-0.7,0-0.8,0s-0.3-0.1-0.4-0.1c-0.1-0.1-0.1-0.2-0.1-0.3v-0.9c-0.5,0.5-1,0.9-1.6,1.2
	c-0.6,0.3-1.3,0.4-2,0.4c-0.6,0-1.2-0.1-1.7-0.2s-0.9-0.4-1.3-0.7c-0.4-0.3-0.7-0.7-0.9-1.2c-0.2-0.5-0.3-1-0.3-1.6
	c0-0.7,0.1-1.2,0.4-1.7s0.7-0.9,1.2-1.2c0.5-0.3,1.2-0.6,1.9-0.7c0.8-0.2,1.7-0.2,2.7-0.2h1.1v-0.7c0-0.4,0-0.7-0.1-1
	s-0.2-0.5-0.4-0.7c-0.2-0.2-0.4-0.3-0.7-0.4c-0.3-0.1-0.6-0.1-1-0.1c-0.5,0-1,0.1-1.5,0.2c-0.4,0.1-0.8,0.3-1.1,0.4
	c-0.3,0.1-0.6,0.3-0.8,0.4c-0.2,0.1-0.4,0.2-0.5,0.2s-0.2,0-0.2-0.1s-0.1-0.1-0.2-0.3c0-0.1-0.1-0.3-0.1-0.4c0-0.2,0-0.3,0-0.5
	c0-0.3,0-0.5,0.1-0.6c0-0.2,0.1-0.3,0.2-0.4s0.3-0.3,0.6-0.4c0.3-0.2,0.7-0.3,1.1-0.4s0.9-0.2,1.3-0.3c0.5-0.1,1-0.1,1.5-0.1
	c0.9,0,1.7,0.1,2.3,0.3c0.6,0.2,1.2,0.4,1.6,0.8s0.7,0.8,0.9,1.4c0.2,0.6,0.3,1.3,0.3,2.1v7.4H415.6z M412.4,359.5h-1.2
	c-0.5,0-1,0-1.3,0.1c-0.4,0.1-0.7,0.2-0.9,0.4c-0.2,0.1-0.4,0.3-0.5,0.6c-0.1,0.2-0.2,0.5-0.2,0.8c0,0.5,0.1,0.8,0.4,1.1
	c0.3,0.3,0.7,0.4,1.3,0.4c0.5,0,0.9-0.1,1.3-0.4s0.8-0.6,1.2-1L412.4,359.5L412.4,359.5z M425.4,363.2c0,0.4,0,0.7-0.1,0.9
	c0,0.2-0.1,0.3-0.2,0.4s-0.2,0.1-0.3,0.2c-0.1,0.1-0.3,0.1-0.5,0.2c-0.2,0-0.4,0.1-0.6,0.1s-0.5,0-0.7,0c-0.6,0-1.2-0.1-1.7-0.2
	c-0.5-0.2-0.9-0.4-1.2-0.8c-0.3-0.4-0.5-0.8-0.7-1.3c-0.1-0.5-0.2-1.1-0.2-1.8V355h-1.4c-0.2,0-0.3-0.1-0.4-0.3
	c-0.1-0.2-0.1-0.5-0.1-1c0-0.3,0-0.5,0-0.6c0-0.2,0.1-0.3,0.1-0.4s0.1-0.2,0.2-0.2s0.2-0.1,0.2-0.1h1.4v-2.6c0-0.1,0-0.2,0.1-0.2
	c0-0.1,0.1-0.1,0.2-0.2c0.1,0,0.3-0.1,0.5-0.1s0.5,0,0.8,0s0.6,0,0.8,0c0.2,0,0.4,0,0.5,0.1c0.1,0,0.2,0.1,0.2,0.2
	c0.1,0.1,0.1,0.1,0.1,0.2v2.6h2.5c0.1,0,0.2,0,0.2,0.1c0.1,0,0.1,0.1,0.2,0.2c0,0.1,0.1,0.2,0.1,0.4c0,0.2,0,0.4,0,0.6
	c0,0.5,0,0.8-0.1,1s-0.2,0.3-0.4,0.3h-2.5v5.4c0,0.6,0.1,1.1,0.3,1.4c0.2,0.3,0.6,0.5,1.1,0.5c0.2,0,0.3,0,0.5,0
	c0.1,0,0.3-0.1,0.4-0.1s0.2-0.1,0.3-0.1c0.1,0,0.1,0,0.2,0h0.1c0.1,0,0.1,0.1,0.1,0.2s0.1,0.2,0.1,0.4
	C425.4,362.8,425.4,363,425.4,363.2z M437.3,364.4c0,0.1,0,0.2-0.1,0.3c-0.1,0.1-0.2,0.1-0.4,0.1c-0.2,0-0.4,0-0.8,0s-0.7,0-0.8,0
	s-0.3-0.1-0.4-0.1c-0.1-0.1-0.1-0.2-0.1-0.3v-0.9c-0.5,0.5-1,0.9-1.6,1.2c-0.6,0.3-1.3,0.4-2,0.4c-0.6,0-1.2-0.1-1.7-0.2
	s-0.9-0.4-1.3-0.7c-0.4-0.3-0.7-0.7-0.9-1.2c-0.2-0.5-0.3-1-0.3-1.6c0-0.7,0.1-1.2,0.4-1.7s0.7-0.9,1.2-1.2c0.5-0.3,1.2-0.6,1.9-0.7
	c0.8-0.2,1.7-0.2,2.7-0.2h1.1v-0.7c0-0.4,0-0.7-0.1-1s-0.2-0.5-0.4-0.7c-0.2-0.2-0.4-0.3-0.7-0.4c-0.3-0.1-0.6-0.1-1-0.1
	c-0.5,0-1,0.1-1.5,0.2c-0.4,0.1-0.8,0.3-1.1,0.4c-0.3,0.1-0.6,0.3-0.8,0.4c-0.2,0.1-0.4,0.2-0.5,0.2s-0.2,0-0.2-0.1
	c-0.1-0.1-0.1-0.1-0.2-0.3c0-0.1-0.1-0.3-0.1-0.4c0-0.2,0-0.3,0-0.5c0-0.3,0-0.5,0.1-0.6c0-0.2,0.1-0.3,0.2-0.4s0.3-0.3,0.6-0.4
	c0.3-0.2,0.7-0.3,1.1-0.4s0.9-0.2,1.3-0.3c0.5-0.1,1-0.1,1.5-0.1c0.9,0,1.7,0.1,2.3,0.3c0.6,0.2,1.2,0.4,1.6,0.8s0.7,0.8,0.9,1.4
	c0.2,0.6,0.3,1.3,0.3,2.1v7.4H437.3z M434.1,359.5h-1.2c-0.5,0-1,0-1.3,0.1c-0.4,0.1-0.7,0.2-0.9,0.4c-0.2,0.1-0.4,0.3-0.5,0.6
	c-0.1,0.2-0.2,0.5-0.2,0.8c0,0.5,0.1,0.8,0.4,1.1c0.3,0.3,0.7,0.4,1.3,0.4c0.5,0,0.9-0.1,1.3-0.4c0.4-0.2,0.8-0.6,1.2-1L434.1,359.5
	L434.1,359.5z M449.7,364.4c0,0.1,0,0.2-0.1,0.2c0,0.1-0.1,0.1-0.3,0.2c-0.1,0-0.3,0.1-0.5,0.1s-0.5,0-0.8,0s-0.6,0-0.8,0
	c-0.2,0-0.4,0-0.5-0.1c-0.1,0-0.2-0.1-0.3-0.2c0-0.1-0.1-0.2-0.1-0.2v-16.9c0-0.1,0-0.2,0.1-0.2c0.1-0.1,0.1-0.1,0.3-0.2
	c0.1,0,0.3-0.1,0.5-0.1s0.5,0,0.8,0s0.6,0,0.8,0c0.2,0,0.4,0.1,0.5,0.1s0.2,0.1,0.3,0.2c0.1,0.1,0.1,0.2,0.1,0.2V364.4z
	 M456.2,364.4c0,0.1,0,0.2-0.1,0.2c0,0.1-0.1,0.1-0.3,0.2c-0.1,0-0.3,0.1-0.5,0.1s-0.5,0-0.8,0s-0.6,0-0.8,0c-0.2,0-0.4,0-0.5-0.1
	c-0.1,0-0.2-0.1-0.3-0.2c0-0.1-0.1-0.2-0.1-0.2v-11.5c0-0.1,0-0.2,0.1-0.2c0.1-0.1,0.1-0.1,0.3-0.2c0.1-0.1,0.3-0.1,0.5-0.1
	s0.5,0,0.8,0s0.6,0,0.8,0c0.2,0,0.4,0.1,0.5,0.1s0.2,0.1,0.3,0.2c0.1,0.1,0.1,0.1,0.1,0.2V364.4z M456.5,349c0,0.6-0.1,1.1-0.4,1.3
	c-0.3,0.3-0.8,0.4-1.5,0.4s-1.2-0.1-1.5-0.4c-0.3-0.2-0.4-0.7-0.4-1.3c0-0.6,0.1-1.1,0.4-1.3c0.3-0.3,0.8-0.4,1.5-0.4
	s1.2,0.1,1.4,0.4C456.3,347.9,456.5,348.3,456.5,349z M467.6,361.1c0,0.7-0.1,1.2-0.4,1.7s-0.6,0.9-1,1.2s-1,0.6-1.6,0.8
	c-0.6,0.2-1.3,0.2-2,0.2c-0.4,0-0.9,0-1.3-0.1s-0.7-0.1-1-0.2s-0.6-0.2-0.8-0.3s-0.4-0.2-0.4-0.3s-0.2-0.2-0.2-0.4
	c0-0.2-0.1-0.5-0.1-0.9c0-0.3,0-0.4,0-0.6c0-0.1,0-0.3,0.1-0.4c0-0.1,0.1-0.1,0.1-0.2c0.1,0,0.1-0.1,0.2-0.1s0.2,0.1,0.4,0.2
	c0.2,0.1,0.4,0.2,0.7,0.4c0.3,0.1,0.6,0.3,1,0.4s0.8,0.2,1.3,0.2c0.3,0,0.5,0,0.8-0.1c0.2-0.1,0.4-0.1,0.6-0.3
	c0.2-0.1,0.3-0.3,0.4-0.4c0.1-0.2,0.1-0.4,0.1-0.6c0-0.3-0.1-0.5-0.2-0.7c-0.2-0.2-0.4-0.4-0.6-0.5c-0.3-0.1-0.5-0.3-0.9-0.4
	c-0.3-0.1-0.7-0.3-1-0.4s-0.7-0.3-1-0.5s-0.6-0.4-0.9-0.7c-0.3-0.3-0.5-0.6-0.6-1c-0.2-0.4-0.2-0.9-0.2-1.4s0.1-1,0.3-1.5
	c0.2-0.5,0.5-0.8,0.9-1.2c0.4-0.3,0.9-0.6,1.5-0.8c0.6-0.2,1.2-0.3,2-0.3c0.4,0,0.7,0,1.1,0.1c0.3,0,0.6,0.1,0.9,0.2
	s0.5,0.2,0.7,0.3c0.2,0.1,0.3,0.2,0.4,0.2c0.1,0.1,0.1,0.1,0.2,0.2c0,0.1,0.1,0.1,0.1,0.2s0,0.2,0,0.3c0,0.1,0,0.3,0,0.5
	s0,0.4,0,0.6c0,0.1,0,0.2,0,0.3c0,0.1-0.1,0.1-0.1,0.2c0,0-0.1,0-0.2,0s-0.2,0-0.4-0.1c-0.2-0.1-0.4-0.2-0.6-0.3
	c-0.3-0.1-0.5-0.2-0.9-0.3c-0.3-0.1-0.7-0.1-1.1-0.1c-0.3,0-0.6,0-0.8,0.1c-0.2,0.1-0.4,0.1-0.5,0.3c-0.1,0.1-0.2,0.2-0.3,0.4
	c-0.1,0.1-0.1,0.3-0.1,0.5c0,0.3,0.1,0.5,0.2,0.7c0.2,0.2,0.4,0.3,0.6,0.5c0.3,0.1,0.6,0.3,0.9,0.4s0.7,0.3,1,0.4
	c0.4,0.1,0.7,0.3,1,0.5s0.6,0.4,0.9,0.7s0.5,0.6,0.6,1C467.5,360.1,467.6,360.6,467.6,361.1z M476.5,363.2c0,0.4,0,0.7-0.1,0.9
	c0,0.2-0.1,0.3-0.2,0.4s-0.2,0.1-0.3,0.2c-0.1,0.1-0.3,0.1-0.5,0.2c-0.2,0-0.4,0.1-0.6,0.1s-0.5,0-0.7,0c-0.6,0-1.2-0.1-1.7-0.2
	s-0.9-0.4-1.2-0.8c-0.3-0.4-0.5-0.8-0.7-1.3c-0.1-0.5-0.2-1.1-0.2-1.8V355h-1.4c-0.2,0-0.3-0.1-0.4-0.3c-0.1-0.2-0.1-0.5-0.1-1
	c0-0.3,0-0.5,0-0.6c0-0.2,0.1-0.3,0.1-0.4s0.1-0.2,0.2-0.2s0.2-0.1,0.2-0.1h1.4v-2.6c0-0.1,0-0.2,0.1-0.2c0-0.1,0.1-0.1,0.2-0.2
	c0.1,0,0.3-0.1,0.5-0.1s0.5,0,0.8,0s0.6,0,0.8,0c0.2,0,0.4,0,0.5,0.1c0.1,0,0.2,0.1,0.2,0.2c0.1,0.1,0.1,0.1,0.1,0.2v2.6h2.5
	c0.1,0,0.2,0,0.2,0.1c0.1,0,0.1,0.1,0.2,0.2c0,0.1,0.1,0.2,0.1,0.4c0,0.2,0,0.4,0,0.6c0,0.5,0,0.8-0.1,1s-0.2,0.3-0.4,0.3h-2.5v5.4
	c0,0.6,0.1,1.1,0.3,1.4c0.2,0.3,0.6,0.5,1.1,0.5c0.2,0,0.3,0,0.5,0c0.1,0,0.3-0.1,0.4-0.1s0.2-0.1,0.3-0.1s0.1,0,0.2,0h0.1
	c0.1,0,0.1,0.1,0.1,0.2s0.1,0.2,0.1,0.4C476.5,362.8,476.5,363,476.5,363.2z M482.1,364.4c0,0.1,0,0.2-0.1,0.2
	c0,0.1-0.1,0.1-0.3,0.2c-0.1,0-0.3,0.1-0.5,0.1s-0.5,0-0.8,0s-0.6,0-0.8,0c-0.2,0-0.4,0-0.5-0.1c-0.1,0-0.2-0.1-0.3-0.2
	c0-0.1-0.1-0.2-0.1-0.2v-11.5c0-0.1,0-0.2,0.1-0.2c0.1-0.1,0.1-0.1,0.3-0.2c0.1-0.1,0.3-0.1,0.5-0.1s0.5,0,0.8,0s0.6,0,0.8,0
	c0.2,0,0.4,0.1,0.5,0.1s0.2,0.1,0.3,0.2c0.1,0.1,0.1,0.1,0.1,0.2V364.4z M482.3,349c0,0.6-0.1,1.1-0.4,1.3c-0.3,0.3-0.8,0.4-1.5,0.4
	s-1.2-0.1-1.5-0.4c-0.3-0.2-0.4-0.7-0.4-1.3c0-0.6,0.1-1.1,0.4-1.3c0.3-0.3,0.8-0.4,1.5-0.4s1.2,0.1,1.4,0.4
	C482.2,347.9,482.3,348.3,482.3,349z M496.3,364.4c0,0.1,0,0.2-0.1,0.2c0,0.1-0.1,0.1-0.2,0.2c-0.1,0-0.3,0.1-0.5,0.1s-0.5,0-0.8,0
	s-0.6,0-0.8,0c-0.2,0-0.4,0-0.5-0.1c-0.1,0-0.2-0.1-0.3-0.2c0-0.1-0.1-0.2-0.1-0.2v-6.6c0-0.5,0-1-0.1-1.3s-0.2-0.6-0.4-0.8
	c-0.1-0.2-0.3-0.4-0.6-0.5c-0.2-0.1-0.5-0.2-0.9-0.2s-0.8,0.1-1.3,0.4c-0.4,0.3-0.8,0.7-1.3,1.3v7.7c0,0.1,0,0.2-0.1,0.2
	c0,0.1-0.1,0.1-0.3,0.2c-0.1,0-0.3,0.1-0.5,0.1s-0.5,0-0.8,0s-0.6,0-0.8,0c-0.2,0-0.4,0-0.5-0.1c-0.1,0-0.2-0.1-0.3-0.2
	c0-0.1-0.1-0.2-0.1-0.2v-11.5c0-0.1,0-0.2,0.1-0.2c0-0.1,0.1-0.1,0.2-0.2c0.1,0,0.3-0.1,0.4-0.1c0.2,0,0.4,0,0.7,0
	c0.3,0,0.5,0,0.7,0s0.3,0,0.4,0.1c0.1,0,0.2,0.1,0.2,0.2s0.1,0.1,0.1,0.2v1.3c0.6-0.7,1.3-1.2,1.9-1.5c0.7-0.4,1.4-0.5,2.1-0.5
	c0.8,0,1.4,0.1,2,0.4c0.5,0.3,1,0.6,1.3,1s0.6,1,0.7,1.5s0.2,1.3,0.2,2.1v7.2H496.3z M509.9,353.7c0,0.4-0.1,0.7-0.2,0.9
	c-0.1,0.2-0.2,0.3-0.3,0.3h-1.3c0.2,0.2,0.3,0.4,0.4,0.7c0.1,0.3,0.1,0.5,0.1,0.8c0,0.7-0.1,1.3-0.4,1.8c-0.2,0.5-0.5,1-1,1.3
	c-0.4,0.4-0.9,0.6-1.5,0.8c-0.6,0.2-1.2,0.3-2,0.3c-0.4,0-0.7,0-1.1-0.1c-0.3-0.1-0.6-0.2-0.8-0.3c-0.1,0.1-0.2,0.3-0.3,0.4
	c-0.1,0.1-0.1,0.3-0.1,0.5c0,0.3,0.1,0.5,0.3,0.6c0.2,0.2,0.5,0.3,0.9,0.3l2.8,0.1c0.7,0,1.2,0.1,1.7,0.3c0.5,0.2,0.9,0.4,1.3,0.7
	c0.4,0.3,0.6,0.6,0.8,1c0.2,0.4,0.3,0.9,0.3,1.4c0,0.6-0.1,1.1-0.4,1.6s-0.6,1-1.1,1.3c-0.5,0.4-1.1,0.7-1.9,0.9
	c-0.8,0.2-1.6,0.3-2.6,0.3s-1.8-0.1-2.5-0.2s-1.3-0.4-1.7-0.6s-0.8-0.6-1-1s-0.3-0.8-0.3-1.2c0-0.3,0-0.6,0.1-0.8
	c0.1-0.3,0.2-0.5,0.3-0.7c0.1-0.2,0.3-0.5,0.5-0.7s0.4-0.4,0.7-0.6c-0.4-0.2-0.7-0.5-0.9-0.8c-0.2-0.3-0.3-0.7-0.3-1.1
	c0-0.5,0.1-1,0.4-1.4c0.2-0.4,0.5-0.8,0.9-1.2c-0.3-0.3-0.5-0.6-0.7-1.1c-0.2-0.4-0.3-1-0.3-1.6c0-0.7,0.1-1.3,0.4-1.8s0.6-1,1-1.3
	c0.4-0.4,0.9-0.6,1.5-0.8c0.6-0.2,1.2-0.3,1.9-0.3c0.4,0,0.7,0,1,0.1c0.3,0,0.6,0.1,0.9,0.2h3.6c0.1,0,0.3,0.1,0.4,0.3
	C509.8,352.9,509.9,353.2,509.9,353.7z M505.7,356.4c0-0.6-0.2-1.1-0.5-1.4s-0.8-0.5-1.4-0.5c-0.3,0-0.6,0.1-0.9,0.2
	c-0.2,0.1-0.4,0.3-0.6,0.4c-0.1,0.2-0.3,0.4-0.4,0.6c-0.1,0.3-0.1,0.5-0.1,0.8c0,0.6,0.2,1,0.5,1.4c0.4,0.3,0.8,0.5,1.4,0.5
	c0.3,0,0.6-0.1,0.9-0.2c0.2-0.1,0.4-0.2,0.6-0.4s0.3-0.4,0.4-0.6C505.7,356.9,505.7,356.6,505.7,356.4z M506.5,365.6
	c0-0.4-0.2-0.7-0.5-0.9c-0.3-0.2-0.7-0.3-1.3-0.3l-2.3-0.1c-0.2,0.2-0.4,0.3-0.5,0.5c-0.1,0.1-0.2,0.3-0.3,0.4
	c-0.1,0.1-0.1,0.3-0.2,0.4c0,0.1,0,0.3,0,0.4c0,0.4,0.2,0.8,0.6,1s1.1,0.4,1.9,0.4c0.5,0,0.9-0.1,1.2-0.2c0.3-0.1,0.6-0.2,0.8-0.4
	c0.2-0.2,0.3-0.3,0.4-0.6C506.4,366,506.5,365.8,506.5,365.6z"/>
<path class="st12" d="M374.8,400.9L374.8,400.9c0-3.6,3-6.6,6.6-6.6h191.9c1.8,0,3.4,0.7,4.7,1.9c1.2,1.2,1.9,2.9,1.9,4.7v26.4
	c0,3.6-3,6.6-6.6,6.6H381.4l0,0c-3.6,0-6.6-3-6.6-6.6V400.9z"/>
<path class="st6" d="M374.8,400.9L374.8,400.9c0-3.6,3-6.6,6.6-6.6h191.9c1.8,0,3.4,0.7,4.7,1.9c1.2,1.2,1.9,2.9,1.9,4.7v26.4
	c0,3.6-3,6.6-6.6,6.6H381.4l0,0c-3.6,0-6.6-3-6.6-6.6V400.9z"/>
<path class="st7" d="M393.9,408.4v11.1h2.5c0.5,0,0.9,0.1,1.1,0.3c0.2,0.2,0.3,0.4,0.3,0.8c0,0.3-0.1,0.6-0.3,0.8
	c-0.2,0.2-0.6,0.3-1.1,0.3h-7.1c-0.5,0-0.9-0.1-1.1-0.3c-0.2-0.2-0.3-0.4-0.3-0.8c0-0.3,0.1-0.6,0.3-0.8c0.2-0.2,0.6-0.3,1.1-0.3
	h2.5v-9h-1.7c-0.5,0-0.9-0.1-1.1-0.3c-0.2-0.2-0.3-0.4-0.3-0.8c0-0.3,0.1-0.6,0.3-0.8c0.2-0.2,0.6-0.3,1.1-0.3L393.9,408.4
	L393.9,408.4z M406,408.4v2.2h-2.5v-2.2H406z M406.3,412.4v7.1h2.5c0.5,0,0.8,0.1,1,0.3c0.2,0.2,0.3,0.4,0.3,0.8
	c0,0.3-0.1,0.6-0.3,0.8c-0.2,0.2-0.6,0.3-1,0.3h-7c-0.5,0-0.9-0.1-1.1-0.3c-0.2-0.2-0.3-0.4-0.3-0.8c0-0.3,0.1-0.6,0.3-0.8
	c0.2-0.2,0.6-0.3,1.1-0.3h2.5v-5h-1.7c-0.5,0-0.8-0.1-1.1-0.3c-0.2-0.2-0.3-0.4-0.3-0.8c0-0.3,0.1-0.6,0.3-0.8
	c0.2-0.2,0.6-0.3,1.1-0.3L406.3,412.4L406.3,412.4z M420,414.8c-0.3-0.2-0.7-0.4-1.1-0.5s-0.8-0.2-1.2-0.2c-0.8,0-1.4,0.1-1.9,0.4
	c-0.2,0.1-0.3,0.2-0.3,0.4c0,0.2,0.1,0.3,0.4,0.5c0.2,0.1,0.7,0.2,1.4,0.3c1.4,0.2,2.3,0.4,2.9,0.6c0.7,0.3,1.3,0.6,1.6,1.1
	c0.4,0.5,0.6,1,0.6,1.5c0,0.7-0.3,1.4-1,1.9c-0.9,0.7-2.2,1.1-3.6,1.1c-0.6,0-1.2-0.1-1.7-0.2s-1-0.3-1.4-0.5
	c-0.1,0.1-0.2,0.2-0.3,0.2c-0.1,0-0.2,0.1-0.4,0.1c-0.3,0-0.6-0.1-0.8-0.3c-0.2-0.2-0.3-0.6-0.3-1.1v-0.7c0-0.5,0.1-0.9,0.3-1.1
	c0.2-0.2,0.4-0.3,0.8-0.3c0.3,0,0.5,0.1,0.6,0.2c0.2,0.1,0.3,0.4,0.4,0.7c0.3,0.3,0.7,0.5,1.1,0.6c0.5,0.1,1,0.2,1.5,0.2
	c1,0,1.7-0.1,2.2-0.4c0.3-0.1,0.4-0.3,0.4-0.5c0-0.3-0.2-0.5-0.5-0.7s-1.1-0.3-2.2-0.4c-1.7-0.2-2.8-0.5-3.4-1s-0.8-1.1-0.8-1.8
	c0-0.7,0.3-1.3,1-1.8c0.9-0.7,2-1,3.3-1c0.5,0,1,0,1.4,0.1s0.9,0.2,1.3,0.4c0.1-0.1,0.3-0.2,0.4-0.2c0.1-0.1,0.2-0.1,0.3-0.1
	c0.3,0,0.5,0.1,0.7,0.3c0.2,0.2,0.3,0.6,0.3,1.1v0.5c0,0.4-0.1,0.7-0.2,0.9c-0.2,0.3-0.5,0.5-0.9,0.5c-0.3,0-0.5-0.1-0.7-0.2
	C420.2,415.2,420.1,415,420,414.8z M429.7,414.4v4.2c0,0.4,0.1,0.7,0.3,0.9c0.3,0.2,0.8,0.3,1.5,0.3c1.1,0,2-0.2,2.9-0.7
	c0.4-0.2,0.6-0.3,0.8-0.3c0.3,0,0.5,0.1,0.7,0.3c0.2,0.2,0.3,0.4,0.3,0.7c0,0.3-0.1,0.5-0.3,0.7c-0.3,0.3-1,0.6-2,0.9
	s-1.8,0.4-2.5,0.4c-1.3,0-2.2-0.3-2.9-0.8c-0.6-0.6-1-1.2-1-2.1v-4.6h-0.7c-0.5,0-0.9-0.1-1.1-0.3c-0.2-0.2-0.3-0.4-0.3-0.8
	c0-0.3,0.1-0.6,0.3-0.8c0.2-0.2,0.6-0.3,1.1-0.3h0.7v-1.9c0-0.5,0.1-0.8,0.3-1c0.2-0.2,0.5-0.3,0.8-0.3s0.5,0.1,0.7,0.3
	c0.2,0.2,0.3,0.6,0.3,1v1.9h3.8c0.5,0,0.9,0.1,1.1,0.3c0.2,0.2,0.3,0.4,0.3,0.8c0,0.3-0.1,0.6-0.3,0.8c-0.2,0.2-0.6,0.3-1.1,0.3
	h-3.7V414.4z M438,419.5v-8.1c-0.4,0-0.8-0.1-1-0.3c-0.2-0.2-0.3-0.4-0.3-0.7c0-0.3,0.1-0.6,0.3-0.8c0.2-0.2,0.6-0.3,1.1-0.3h4.4
	c0.7,0,1.3,0.1,2,0.4c0.6,0.3,1.2,0.6,1.5,1c0.3,0.3,0.6,0.7,0.9,1.2s0.6,1,0.7,1.5c0.2,0.5,0.2,1.1,0.2,1.8v1
	c0,0.9-0.1,1.7-0.4,2.3c-0.3,0.7-0.7,1.2-1.2,1.7c-0.5,0.4-0.9,0.7-1.4,0.9c-0.7,0.3-1.5,0.5-2.6,0.5H438c-0.5,0-0.9-0.1-1.1-0.3
	c-0.2-0.2-0.3-0.4-0.3-0.8c0-0.3,0.1-0.6,0.3-0.8C437.2,419.6,437.6,419.5,438,419.5z M440.1,419.5h2.2c0.8,0,1.4-0.1,1.9-0.4
	c0.6-0.3,1-0.7,1.2-1.2c0.3-0.5,0.4-1.1,0.4-1.9v-1c0-0.7-0.1-1.2-0.4-1.7c-0.4-0.8-0.8-1.3-1.3-1.6c-0.5-0.3-1.1-0.4-1.8-0.4h-2.2
	L440.1,419.5L440.1,419.5z M457,421.6v-0.5c-0.5,0.3-1.1,0.5-1.7,0.6s-1.2,0.2-1.7,0.2c-1.1,0-2-0.3-2.7-0.9s-1-1.3-1-2
	c0-0.9,0.4-1.7,1.3-2.4c0.9-0.8,2.1-1.1,3.7-1.1c0.6,0,1.4,0.1,2.2,0.2v-0.5c0-0.3-0.1-0.6-0.4-0.8c-0.3-0.2-0.8-0.3-1.5-0.3
	c-0.6,0-1.4,0.1-2.4,0.4c-0.4,0.1-0.7,0.1-0.9,0.1c-0.3,0-0.5-0.1-0.7-0.3c-0.2-0.2-0.3-0.5-0.3-0.8c0-0.2,0-0.3,0.1-0.4
	s0.2-0.2,0.3-0.3c0.1-0.1,0.4-0.2,0.8-0.3c0.5-0.1,1-0.3,1.6-0.3c0.5-0.1,1-0.1,1.5-0.1c1.3,0,2.3,0.3,3,0.8s1.1,1.3,1.1,2.3v4.3
	h0.4c0.5,0,0.9,0.1,1.1,0.3c0.2,0.2,0.3,0.4,0.3,0.8c0,0.3-0.1,0.6-0.3,0.8c-0.2,0.2-0.6,0.3-1.1,0.3H457V421.6z M457,417.8
	c-0.8-0.2-1.6-0.2-2.3-0.2c-0.8,0-1.6,0.2-2.2,0.6c-0.4,0.3-0.6,0.5-0.6,0.8c0,0.2,0.1,0.4,0.3,0.5c0.3,0.2,0.8,0.3,1.4,0.3
	c0.5,0,1.1-0.1,1.7-0.3c0.6-0.2,1.2-0.5,1.7-0.8V417.8z M467,414.4v4.2c0,0.4,0.1,0.7,0.3,0.9c0.3,0.2,0.8,0.3,1.5,0.3
	c1.1,0,2-0.2,2.9-0.7c0.4-0.2,0.6-0.3,0.8-0.3c0.3,0,0.5,0.1,0.7,0.3c0.2,0.2,0.3,0.4,0.3,0.7c0,0.3-0.1,0.5-0.3,0.7
	c-0.3,0.3-1,0.6-2,0.9s-1.8,0.4-2.5,0.4c-1.3,0-2.2-0.3-2.9-0.8c-0.6-0.6-1-1.2-1-2.1v-4.6h-0.7c-0.5,0-0.9-0.1-1.1-0.3
	c-0.2-0.2-0.3-0.4-0.3-0.8c0-0.3,0.1-0.6,0.3-0.8c0.2-0.2,0.6-0.3,1.1-0.3h0.7v-1.9c0-0.5,0.1-0.8,0.3-1c0.2-0.2,0.5-0.3,0.8-0.3
	s0.5,0.1,0.7,0.3c0.2,0.2,0.3,0.6,0.3,1v1.9h3.8c0.5,0,0.9,0.1,1.1,0.3c0.2,0.2,0.3,0.4,0.3,0.8c0,0.3-0.1,0.6-0.3,0.8
	c-0.2,0.2-0.6,0.3-1.1,0.3H467V414.4z M481.9,421.6v-0.5c-0.5,0.3-1.1,0.5-1.7,0.6s-1.2,0.2-1.7,0.2c-1.1,0-2-0.3-2.7-0.9
	s-1-1.3-1-2c0-0.9,0.4-1.7,1.3-2.4c0.9-0.8,2.1-1.1,3.7-1.1c0.6,0,1.4,0.1,2.2,0.2v-0.5c0-0.3-0.1-0.6-0.4-0.8
	c-0.3-0.2-0.8-0.3-1.5-0.3c-0.6,0-1.4,0.1-2.4,0.4c-0.4,0.1-0.7,0.1-0.9,0.1c-0.3,0-0.5-0.1-0.7-0.3c-0.2-0.2-0.3-0.5-0.3-0.8
	c0-0.2,0-0.3,0.1-0.4s0.2-0.2,0.3-0.3c0.1-0.1,0.4-0.2,0.8-0.3c0.5-0.1,1-0.3,1.6-0.3c0.5-0.1,1-0.1,1.5-0.1c1.3,0,2.3,0.3,3,0.8
	s1.1,1.3,1.1,2.3v4.3h0.4c0.5,0,0.9,0.1,1.1,0.3c0.2,0.2,0.3,0.4,0.3,0.8c0,0.3-0.1,0.6-0.3,0.8c-0.2,0.2-0.6,0.3-1.1,0.3h-2.7
	V421.6z M481.9,417.8c-0.8-0.2-1.6-0.2-2.3-0.2c-0.8,0-1.6,0.2-2.2,0.6c-0.4,0.3-0.6,0.5-0.6,0.8c0,0.2,0.1,0.4,0.3,0.5
	c0.3,0.2,0.8,0.3,1.4,0.3c0.5,0,1.1-0.1,1.7-0.3c0.6-0.2,1.2-0.5,1.7-0.8V417.8z M494.7,414.8c-0.3-0.2-0.7-0.4-1.1-0.5
	s-0.8-0.2-1.2-0.2c-0.8,0-1.4,0.1-1.9,0.4c-0.2,0.1-0.3,0.2-0.3,0.4c0,0.2,0.1,0.3,0.4,0.5c0.2,0.1,0.7,0.2,1.4,0.3
	c1.4,0.2,2.3,0.4,2.9,0.6c0.7,0.3,1.3,0.6,1.6,1.1c0.4,0.5,0.6,1,0.6,1.5c0,0.7-0.3,1.4-1,1.9c-0.9,0.7-2.2,1.1-3.6,1.1
	c-0.6,0-1.2-0.1-1.7-0.2s-1-0.3-1.4-0.5c-0.1,0.1-0.2,0.2-0.3,0.2c-0.1,0-0.2,0.1-0.4,0.1c-0.3,0-0.6-0.1-0.8-0.3
	c-0.2-0.2-0.3-0.6-0.3-1.1v-0.7c0-0.5,0.1-0.9,0.3-1.1c0.2-0.2,0.4-0.3,0.8-0.3c0.3,0,0.5,0.1,0.6,0.2c0.2,0.1,0.3,0.4,0.4,0.7
	c0.3,0.3,0.7,0.5,1.1,0.6c0.5,0.1,1,0.2,1.5,0.2c1,0,1.7-0.1,2.2-0.4c0.3-0.1,0.4-0.3,0.4-0.5c0-0.3-0.2-0.5-0.5-0.7
	s-1.1-0.3-2.2-0.4c-1.7-0.2-2.8-0.5-3.4-1s-0.8-1.1-0.8-1.8c0-0.7,0.3-1.3,1-1.8c0.9-0.7,2-1,3.3-1c0.5,0,1,0,1.4,0.1
	s0.9,0.2,1.3,0.4c0.1-0.1,0.3-0.2,0.4-0.2c0.1-0.1,0.2-0.1,0.3-0.1c0.3,0,0.5,0.1,0.7,0.3c0.2,0.2,0.3,0.6,0.3,1.1v0.5
	c0,0.4-0.1,0.7-0.2,0.9c-0.2,0.3-0.5,0.5-0.9,0.5c-0.3,0-0.5-0.1-0.7-0.2C494.9,415.2,494.8,415,494.7,414.8z M510.1,418h-8.5
	c0.2,0.5,0.6,1,1.2,1.3c0.5,0.3,1.3,0.5,2.2,0.5c0.8,0,1.8-0.2,3.1-0.5c0.5-0.1,0.9-0.2,1.1-0.2c0.3,0,0.5,0.1,0.7,0.3
	c0.2,0.2,0.3,0.4,0.3,0.7c0,0.3-0.1,0.5-0.3,0.7c-0.3,0.3-0.9,0.5-2,0.7c-1,0.2-2,0.3-3,0.3c-1.7,0-3-0.5-4-1.4s-1.5-2.1-1.5-3.5
	c0-1.5,0.5-2.6,1.6-3.6c1.1-0.9,2.3-1.4,3.7-1.4c0.8,0,1.6,0.1,2.3,0.4c0.7,0.3,1.2,0.6,1.6,1c0.5,0.5,0.9,1.1,1.2,1.9
	c0.2,0.5,0.3,1.1,0.3,1.8L510.1,418L510.1,418z M507.8,415.9c-0.3-0.6-0.7-1-1.2-1.3s-1.1-0.4-1.8-0.4c-0.7,0-1.3,0.1-1.8,0.4
	s-0.9,0.7-1.2,1.3H507.8z M516.8,414.4v4.2c0,0.4,0.1,0.7,0.3,0.9c0.3,0.2,0.8,0.3,1.5,0.3c1.1,0,2-0.2,2.9-0.7
	c0.4-0.2,0.6-0.3,0.8-0.3c0.3,0,0.5,0.1,0.7,0.3c0.2,0.2,0.3,0.4,0.3,0.7c0,0.3-0.1,0.5-0.3,0.7c-0.3,0.3-1,0.6-2,0.9
	s-1.8,0.4-2.5,0.4c-1.3,0-2.2-0.3-2.9-0.8c-0.6-0.6-1-1.2-1-2.1v-4.6h-0.7c-0.5,0-0.9-0.1-1.1-0.3c-0.2-0.2-0.3-0.4-0.3-0.8
	c0-0.3,0.1-0.6,0.3-0.8c0.2-0.2,0.6-0.3,1.1-0.3h0.7v-1.9c0-0.5,0.1-0.8,0.3-1s0.5-0.3,0.8-0.3s0.5,0.1,0.7,0.3
	c0.2,0.2,0.3,0.6,0.3,1v1.9h3.8c0.5,0,0.9,0.1,1.1,0.3c0.2,0.2,0.3,0.4,0.3,0.8c0,0.3-0.1,0.6-0.3,0.8c-0.2,0.2-0.6,0.3-1.1,0.3
	h-3.7V414.4z M532,414.8c-0.3-0.2-0.7-0.4-1.1-0.5c-0.4-0.1-0.8-0.2-1.2-0.2c-0.8,0-1.4,0.1-1.9,0.4c-0.2,0.1-0.3,0.2-0.3,0.4
	c0,0.2,0.1,0.3,0.4,0.5c0.2,0.1,0.7,0.2,1.4,0.3c1.4,0.2,2.3,0.4,2.9,0.6c0.7,0.3,1.3,0.6,1.6,1.1c0.4,0.5,0.6,1,0.6,1.5
	c0,0.7-0.3,1.4-1,1.9c-0.9,0.7-2.2,1.1-3.6,1.1c-0.6,0-1.2-0.1-1.7-0.2s-1-0.3-1.4-0.5c-0.1,0.1-0.2,0.2-0.3,0.2s-0.2,0.1-0.4,0.1
	c-0.3,0-0.6-0.1-0.8-0.3c-0.2-0.2-0.3-0.6-0.3-1.1v-0.7c0-0.5,0.1-0.9,0.3-1.1s0.4-0.3,0.8-0.3c0.3,0,0.5,0.1,0.6,0.2
	c0.2,0.1,0.3,0.4,0.4,0.7c0.3,0.3,0.7,0.5,1.1,0.6c0.5,0.1,1,0.2,1.5,0.2c1,0,1.7-0.1,2.2-0.4c0.3-0.1,0.4-0.3,0.4-0.5
	c0-0.3-0.2-0.5-0.5-0.7s-1.1-0.3-2.2-0.4c-1.7-0.2-2.8-0.5-3.4-1c-0.6-0.5-0.8-1.1-0.8-1.8c0-0.7,0.3-1.3,1-1.8c0.9-0.7,2-1,3.3-1
	c0.5,0,1,0,1.4,0.1s0.9,0.2,1.3,0.4c0.1-0.1,0.3-0.2,0.4-0.2c0.1-0.1,0.2-0.1,0.3-0.1c0.3,0,0.5,0.1,0.7,0.3
	c0.2,0.2,0.3,0.6,0.3,1.1v0.5c0,0.4-0.1,0.7-0.2,0.9c-0.2,0.3-0.5,0.5-0.9,0.5c-0.3,0-0.5-0.1-0.7-0.2
	C532.2,415.2,532.1,415,532,414.8z"/>
<path class="st3" d="M591.3,409.1l49-0.5"/>
<path class="st8" d="M591.3,409.1l40.5-0.4"/>
<path class="st9" d="M631.8,411l6.4-2.4l-6.4-2.3V411z"/>
<path class="st3" d="M651.6,372.4h161.5v77.7H651.6V372.4z"/>
<path class="st4" d="M665.9,405.1v-14.8h2.9l3.5,10.5c0.3,1,0.6,1.7,0.7,2.2c0.2-0.5,0.4-1.3,0.8-2.4l3.6-10.3h2.6v14.8h-1.9v-12.4
	l-4.3,12.4H672l-4.3-12.7v12.7H665.9z M681.6,405.1l5.7-14.8h2.1l6.1,14.8h-2.2l-1.7-4.5h-6.2l-1.6,4.5H681.6z M685.9,399h5
	l-1.5-4.1c-0.5-1.2-0.8-2.3-1.1-3.1c-0.2,1-0.5,1.9-0.8,2.8L685.9,399z M697.1,405.1v-14.8h10.7v1.7H699v4.5h8.2v1.7H699v5.1h9.1
	v1.7L697.1,405.1L697.1,405.1z M715.8,399.7c0-2,0.6-3.5,1.7-4.4c0.9-0.8,2.1-1.2,3.4-1.2c1.5,0,2.7,0.5,3.6,1.5
	c0.9,1,1.4,2.3,1.4,4c0,1.4-0.2,2.5-0.6,3.3c-0.4,0.8-1,1.4-1.8,1.8s-1.7,0.7-2.6,0.7c-1.5,0-2.7-0.5-3.6-1.4
	C716.3,402.9,715.8,401.5,715.8,399.7z M717.7,399.7c0,1.4,0.3,2.4,0.9,3.1c0.6,0.7,1.4,1,2.3,1c0.9,0,1.7-0.3,2.3-1
	s0.9-1.7,0.9-3.2c0-1.3-0.3-2.3-0.9-3c-0.6-0.7-1.4-1-2.3-1c-0.9,0-1.7,0.3-2.3,1C718,397.3,717.7,398.3,717.7,399.7z M728,405.1
	v-10.7h1.6v1.6c0.4-0.8,0.8-1.2,1.2-1.5s0.7-0.4,1.2-0.4c0.6,0,1.2,0.2,1.9,0.6l-0.6,1.7c-0.4-0.3-0.9-0.4-1.3-0.4
	c-0.4,0-0.8,0.1-1.1,0.4c-0.3,0.2-0.5,0.6-0.7,1c-0.2,0.6-0.3,1.4-0.3,2.1v5.6L728,405.1L728,405.1z"/>
<path class="st4" d="M672.9,424.2v-1.7h6.3v5.5c-1,0.8-2,1.3-3,1.7s-2.1,0.6-3.1,0.6c-1.5,0-2.8-0.3-4-0.9c-1.2-0.6-2.1-1.5-2.7-2.7
	c-0.6-1.2-0.9-2.5-0.9-4c0-1.4,0.3-2.8,0.9-4c0.6-1.3,1.5-2.2,2.6-2.8c1.1-0.6,2.4-0.9,3.9-0.9c1.1,0,2,0.2,2.9,0.5s1.5,0.8,2,1.5
	c0.5,0.6,0.9,1.4,1.1,2.4l-1.8,0.5c-0.2-0.8-0.5-1.3-0.8-1.8c-0.3-0.4-0.8-0.8-1.4-1c-0.6-0.3-1.3-0.4-2-0.4c-0.9,0-1.7,0.1-2.3,0.4
	s-1.2,0.6-1.6,1.1c-0.4,0.4-0.7,0.9-0.9,1.5c-0.4,0.9-0.6,1.9-0.6,3c0,1.3,0.2,2.4,0.7,3.3s1.1,1.5,2,2c0.9,0.4,1.8,0.6,2.8,0.6
	c0.9,0,1.7-0.2,2.5-0.5s1.4-0.7,1.8-1v-2.8h-4.4V424.2z M682.2,430v-14.9h6.6c1.3,0,2.3,0.1,3,0.4s1.2,0.7,1.7,1.4
	c0.4,0.7,0.6,1.4,0.6,2.2c0,1-0.3,1.9-1,2.7c-0.7,0.7-1.7,1.2-3.2,1.4c0.5,0.2,0.9,0.5,1.2,0.7c0.6,0.5,1.1,1.2,1.6,2l2.6,4h-2.5
	l-2-3.1c-0.6-0.9-1-1.6-1.4-2c-0.4-0.5-0.7-0.8-1-1s-0.6-0.3-0.9-0.4c-0.2,0-0.6-0.1-1.1-0.1h-2.3v6.6L682.2,430L682.2,430z
	 M684.1,421.7h4.2c0.9,0,1.6-0.1,2.1-0.3c0.5-0.2,0.9-0.5,1.2-0.9s0.4-0.9,0.4-1.3c0-0.7-0.3-1.3-0.8-1.7c-0.5-0.5-1.3-0.7-2.4-0.7
	h-4.7V421.7z M703.9,428.6c-0.7,0.6-1.3,1-1.9,1.2c-0.6,0.2-1.3,0.4-2,0.4c-1.2,0-2.1-0.3-2.7-0.9c-0.6-0.6-1-1.3-1-2.2
	c0-0.5,0.1-1,0.4-1.4c0.2-0.4,0.5-0.8,0.9-1.1c0.4-0.3,0.8-0.5,1.3-0.6c0.4-0.1,0.9-0.2,1.6-0.3c1.5-0.2,2.6-0.4,3.3-0.6
	c0-0.3,0-0.4,0-0.5c0-0.8-0.2-1.3-0.5-1.6c-0.5-0.4-1.1-0.6-2.1-0.6c-0.9,0-1.5,0.2-1.9,0.5s-0.7,0.8-0.9,1.6l-1.8-0.2
	c0.2-0.8,0.4-1.4,0.8-1.8c0.4-0.5,0.9-0.8,1.6-1.1c0.7-0.3,1.5-0.4,2.4-0.4s1.7,0.1,2.3,0.3c0.6,0.2,1,0.5,1.3,0.8s0.5,0.7,0.6,1.2
	c0.1,0.3,0.1,0.9,0.1,1.7v2.4c0,1.7,0,2.8,0.1,3.2s0.2,0.9,0.5,1.3h-1.9C704.1,429.6,703.9,429.1,703.9,428.6z M703.7,424.6
	c-0.7,0.3-1.7,0.5-3,0.7c-0.8,0.1-1.3,0.2-1.6,0.4c-0.3,0.1-0.6,0.3-0.7,0.6c-0.2,0.3-0.2,0.5-0.2,0.8c0,0.5,0.2,0.9,0.6,1.2
	c0.4,0.3,0.9,0.5,1.6,0.5c0.7,0,1.3-0.1,1.9-0.4c0.6-0.3,1-0.7,1.2-1.3c0.2-0.4,0.3-1,0.3-1.8L703.7,424.6L703.7,424.6z M708.4,430
	v-10.7h1.6v1.5c0.8-1.2,1.9-1.8,3.4-1.8c0.6,0,1.2,0.1,1.8,0.4c0.5,0.2,1,0.5,1.2,0.9c0.3,0.4,0.5,0.8,0.6,1.3
	c0.1,0.3,0.1,0.9,0.1,1.8v6.6h-1.8v-6.5c0-0.7-0.1-1.3-0.2-1.7c-0.1-0.4-0.4-0.7-0.8-0.9c-0.4-0.2-0.8-0.3-1.3-0.3
	c-0.8,0-1.4,0.3-2,0.8s-0.8,1.4-0.8,2.8v5.9L708.4,430L708.4,430z M719.6,430.9l1.8,0.3c0.1,0.5,0.3,0.9,0.6,1.2
	c0.4,0.3,1.1,0.5,1.9,0.5c0.8,0,1.5-0.2,1.9-0.5c0.5-0.3,0.8-0.8,0.9-1.4c0.1-0.4,0.1-1.2,0.1-2.3c-0.8,0.9-1.8,1.4-3,1.4
	c-1.5,0-2.6-0.5-3.4-1.6c-0.8-1.1-1.2-2.4-1.2-3.8c0-1,0.2-2,0.6-2.8c0.4-0.9,0.9-1.5,1.6-2c0.7-0.5,1.5-0.7,2.5-0.7
	c1.3,0,2.3,0.5,3.1,1.5v-1.3h1.7v9.3c0,1.7-0.2,2.9-0.5,3.6c-0.3,0.7-0.9,1.2-1.6,1.6c-0.7,0.4-1.6,0.6-2.7,0.6
	c-1.3,0-2.3-0.3-3.1-0.9C720,432.9,719.6,432,719.6,430.9z M721.1,424.4c0,1.4,0.3,2.4,0.8,3.1c0.6,0.6,1.3,1,2.1,1s1.5-0.3,2.1-1
	c0.6-0.6,0.9-1.7,0.9-3s-0.3-2.3-0.9-3c-0.6-0.7-1.3-1-2.1-1s-1.5,0.3-2.1,1C721.4,422.1,721.1,423.1,721.1,424.4z M738.9,426.5
	l1.9,0.2c-0.3,1.1-0.8,2-1.7,2.6c-0.8,0.6-1.8,0.9-3.1,0.9c-1.6,0-2.8-0.5-3.8-1.4c-0.9-1-1.4-2.3-1.4-4.1c0-1.8,0.5-3.2,1.4-4.2
	s2.2-1.5,3.6-1.5c1.4,0,2.6,0.5,3.5,1.5s1.4,2.4,1.4,4.1c0,0.1,0,0.3,0,0.5h-8c0.1,1.2,0.4,2.1,1,2.7c0.6,0.6,1.4,0.9,2.3,0.9
	c0.7,0,1.2-0.2,1.7-0.5C738.2,427.9,738.6,427.3,738.9,426.5z M732.9,423.6h6c-0.1-0.9-0.3-1.6-0.7-2c-0.6-0.7-1.3-1.1-2.3-1.1
	c-0.8,0-1.5,0.3-2.1,0.8C733.2,421.9,732.9,422.6,732.9,423.6z M742.3,426.8l1.8-0.3c0.1,0.7,0.4,1.3,0.8,1.7
	c0.5,0.4,1.1,0.6,1.9,0.6c0.8,0,1.5-0.2,1.9-0.5s0.6-0.7,0.6-1.2c0-0.4-0.2-0.7-0.5-1c-0.3-0.2-0.9-0.4-1.9-0.6
	c-1.3-0.3-2.3-0.6-2.8-0.9s-0.9-0.6-1.2-1s-0.4-0.9-0.4-1.4s0.1-0.9,0.3-1.3s0.5-0.8,0.9-1c0.3-0.2,0.7-0.4,1.2-0.5s1-0.2,1.6-0.2
	c0.8,0,1.6,0.1,2.2,0.4c0.6,0.2,1.1,0.6,1.4,1c0.3,0.4,0.5,1,0.6,1.7l-1.8,0.2c-0.1-0.5-0.3-1-0.7-1.3s-0.9-0.5-1.6-0.5
	c-0.8,0-1.4,0.1-1.8,0.4c-0.4,0.3-0.5,0.6-0.5,1c0,0.2,0.1,0.4,0.2,0.6c0.1,0.2,0.4,0.4,0.7,0.5c0.2,0.1,0.7,0.2,1.6,0.5
	c1.3,0.3,2.2,0.6,2.7,0.8c0.5,0.2,0.9,0.5,1.2,1c0.3,0.4,0.4,0.9,0.4,1.5c0,0.6-0.2,1.2-0.5,1.7c-0.4,0.5-0.9,0.9-1.5,1.2
	c-0.7,0.3-1.4,0.4-2.3,0.4c-1.4,0-2.5-0.3-3.2-0.9C743,428.8,742.5,427.9,742.3,426.8z M753.4,430v-14.9h1.8v14.8h-1.8V430z
	 M758,417.2v-2.1h1.8v2.1H758z M758,430v-10.7h1.8V430H758z M761.9,426.8l1.8-0.3c0.1,0.7,0.4,1.3,0.8,1.7c0.5,0.4,1.1,0.6,1.9,0.6
	c0.8,0,1.5-0.2,1.9-0.5s0.6-0.7,0.6-1.2c0-0.4-0.2-0.7-0.5-1c-0.3-0.2-0.9-0.4-1.9-0.6c-1.3-0.3-2.3-0.6-2.8-0.9s-0.9-0.6-1.2-1
	s-0.4-0.9-0.4-1.4s0.1-0.9,0.3-1.3s0.5-0.8,0.9-1c0.3-0.2,0.7-0.4,1.2-0.5s1-0.2,1.6-0.2c0.8,0,1.6,0.1,2.2,0.4
	c0.6,0.2,1.1,0.6,1.4,1c0.3,0.4,0.5,1,0.6,1.7l-1.8,0.2c-0.1-0.5-0.3-1-0.7-1.3s-0.9-0.5-1.6-0.5c-0.8,0-1.4,0.1-1.8,0.4
	c-0.4,0.3-0.5,0.6-0.5,1c0,0.2,0.1,0.4,0.2,0.6c0.1,0.2,0.4,0.4,0.7,0.5c0.2,0.1,0.7,0.2,1.6,0.5c1.3,0.3,2.2,0.6,2.7,0.8
	c0.5,0.2,0.9,0.5,1.2,1c0.3,0.4,0.4,0.9,0.4,1.5c0,0.6-0.2,1.2-0.5,1.7c-0.4,0.5-0.9,0.9-1.5,1.2c-0.7,0.3-1.4,0.4-2.3,0.4
	c-1.4,0-2.5-0.3-3.2-0.9C762.6,428.8,762.1,427.9,761.9,426.8z M777,428.3l0.3,1.6c-0.5,0.1-1,0.2-1.4,0.2c-0.6,0-1.2-0.1-1.5-0.3
	c-0.4-0.2-0.6-0.5-0.8-0.8c-0.1-0.3-0.2-1.1-0.2-2.1v-6.2h-1.3v-1.4h1.3v-2.7l1.8-1.1v3.8h1.8v1.4h-1.8v6.3c0,0.5,0,0.9,0.1,1
	s0.2,0.3,0.3,0.4c0.1,0.1,0.4,0.1,0.6,0.1C776.4,428.4,776.6,428.4,777,428.3z"/>
<path class="st5" d="M374.8,204.8L374.8,204.8c0-3.2,2.6-5.8,5.8-5.8h193.6c1.5,0,3,0.6,4.1,1.7s1.7,2.6,1.7,4.1V228
	c0,3.2-2.6,5.8-5.8,5.8H380.6c-3.2,0-5.8-2.6-5.8-5.8V204.8z"/>
<path class="st6" d="M374.8,204.8L374.8,204.8c0-3.2,2.6-5.8,5.8-5.8h193.6c1.5,0,3,0.6,4.1,1.7s1.7,2.6,1.7,4.1V228
	c0,3.2-2.6,5.8-5.8,5.8H380.6c-3.2,0-5.8-2.6-5.8-5.8V204.8z"/>
<path class="st7" d="M433.3,216.7v4.2c0,0.4,0.1,0.7,0.3,0.9c0.3,0.2,0.8,0.3,1.5,0.3c1.1,0,2-0.2,2.9-0.7c0.4-0.2,0.6-0.3,0.8-0.3
	c0.3,0,0.5,0.1,0.7,0.3c0.2,0.2,0.3,0.4,0.3,0.7c0,0.3-0.1,0.5-0.3,0.7c-0.3,0.3-1,0.6-2,0.9s-1.8,0.4-2.5,0.4
	c-1.3,0-2.2-0.3-2.9-0.8c-0.6-0.6-1-1.2-1-2.1v-4.6h-0.7c-0.5,0-0.9-0.1-1.1-0.3c-0.2-0.2-0.3-0.4-0.3-0.8s0.1-0.6,0.3-0.8
	c0.2-0.2,0.6-0.3,1.1-0.3h0.7v-1.9c0-0.5,0.1-0.8,0.3-1c0.2-0.2,0.5-0.3,0.8-0.3s0.5,0.1,0.7,0.3c0.2,0.2,0.3,0.6,0.3,1v1.9h3.8
	c0.5,0,0.9,0.1,1.1,0.3c0.2,0.2,0.3,0.4,0.3,0.8s-0.1,0.6-0.3,0.8c-0.2,0.2-0.6,0.3-1.1,0.3h-3.7V216.7z M451.4,220.3h-8.5
	c0.2,0.5,0.6,1,1.2,1.3c0.5,0.3,1.3,0.5,2.2,0.5c0.8,0,1.8-0.2,3.1-0.5c0.5-0.1,0.9-0.2,1.1-0.2c0.3,0,0.5,0.1,0.7,0.3
	c0.2,0.2,0.3,0.4,0.3,0.7c0,0.3-0.1,0.5-0.3,0.7c-0.3,0.3-0.9,0.5-2,0.7c-1,0.2-2,0.3-3,0.3c-1.7,0-3-0.5-4-1.4s-1.5-2.1-1.5-3.5
	c0-1.5,0.5-2.6,1.6-3.6c1.1-0.9,2.3-1.4,3.7-1.4c0.8,0,1.6,0.1,2.3,0.4c0.7,0.3,1.2,0.6,1.6,1c0.5,0.5,0.9,1.1,1.2,1.9
	c0.2,0.5,0.3,1.1,0.3,1.8L451.4,220.3L451.4,220.3z M449.1,218.2c-0.3-0.6-0.7-1-1.2-1.3s-1.1-0.4-1.8-0.4s-1.3,0.1-1.8,0.4
	s-0.9,0.7-1.2,1.3H449.1z M460.9,217c-0.3-0.2-0.7-0.4-1.1-0.5s-0.8-0.2-1.2-0.2c-0.8,0-1.4,0.1-1.9,0.4c-0.2,0.1-0.3,0.2-0.3,0.4
	c0,0.2,0.1,0.3,0.4,0.5c0.2,0.1,0.7,0.2,1.4,0.3c1.4,0.2,2.3,0.4,2.9,0.6c0.7,0.3,1.3,0.6,1.6,1.1c0.4,0.5,0.6,1,0.6,1.5
	c0,0.7-0.3,1.4-1,1.9c-0.9,0.7-2.2,1.1-3.6,1.1c-0.6,0-1.2-0.1-1.7-0.2s-1-0.3-1.4-0.5c-0.1,0.1-0.2,0.2-0.3,0.2
	c-0.1,0-0.2,0.1-0.4,0.1c-0.3,0-0.6-0.1-0.8-0.3c-0.2-0.2-0.3-0.6-0.3-1.1v-0.7c0-0.5,0.1-0.9,0.3-1.1c0.2-0.2,0.4-0.3,0.8-0.3
	c0.3,0,0.5,0.1,0.6,0.2c0.2,0.1,0.3,0.4,0.4,0.7c0.3,0.3,0.7,0.5,1.1,0.6c0.5,0.1,1,0.2,1.5,0.2c1,0,1.7-0.1,2.2-0.4
	c0.3-0.1,0.4-0.3,0.4-0.5c0-0.3-0.2-0.5-0.5-0.7c-0.4-0.2-1.1-0.3-2.2-0.4c-1.7-0.2-2.8-0.5-3.4-1s-0.8-1.1-0.8-1.8
	c0-0.7,0.3-1.3,1-1.8c0.9-0.7,2-1,3.3-1c0.5,0,1,0,1.4,0.1s0.9,0.2,1.3,0.4c0.1-0.1,0.3-0.2,0.4-0.2c0.1-0.1,0.2-0.1,0.3-0.1
	c0.3,0,0.5,0.1,0.7,0.3c0.2,0.2,0.3,0.6,0.3,1.1v0.5c0,0.4-0.1,0.7-0.2,0.9c-0.2,0.3-0.5,0.5-0.9,0.5c-0.3,0-0.5-0.1-0.7-0.2
	C461.1,217.5,461,217.3,460.9,217z M470.6,216.7v4.2c0,0.4,0.1,0.7,0.3,0.9c0.3,0.2,0.8,0.3,1.5,0.3c1.1,0,2-0.2,2.9-0.7
	c0.4-0.2,0.6-0.3,0.8-0.3c0.3,0,0.5,0.1,0.7,0.3c0.2,0.2,0.3,0.4,0.3,0.7c0,0.3-0.1,0.5-0.3,0.7c-0.3,0.3-1,0.6-2,0.9
	s-1.8,0.4-2.5,0.4c-1.3,0-2.2-0.3-2.9-0.8c-0.6-0.6-1-1.2-1-2.1v-4.6h-0.6c-0.5,0-0.9-0.1-1.1-0.3c-0.2-0.2-0.3-0.4-0.3-0.8
	s0.1-0.6,0.3-0.8c0.2-0.2,0.6-0.3,1.1-0.3h0.7v-1.9c0-0.5,0.1-0.8,0.3-1c0.2-0.2,0.5-0.3,0.8-0.3s0.5,0.1,0.7,0.3
	c0.2,0.2,0.3,0.6,0.3,1v1.9h3.8c0.5,0,0.9,0.1,1.1,0.3c0.2,0.2,0.3,0.4,0.3,0.8s-0.1,0.6-0.3,0.8c-0.2,0.2-0.6,0.3-1.1,0.3h-3.8
	V216.7z M483.6,216.7v5h2.9c0.5,0,0.9,0.1,1.1,0.3c0.2,0.2,0.3,0.4,0.3,0.8c0,0.3-0.1,0.6-0.3,0.8c-0.2,0.2-0.6,0.3-1.1,0.3h-6.3
	c-0.5,0-0.9-0.1-1.1-0.3c-0.2-0.2-0.3-0.4-0.3-0.8c0-0.3,0.1-0.6,0.3-0.8c0.2-0.2,0.6-0.3,1.1-0.3h1.2v-5h-1c-0.5,0-0.9-0.1-1.1-0.3
	c-0.2-0.2-0.3-0.4-0.3-0.8s0.1-0.6,0.3-0.8c0.2-0.2,0.6-0.3,1.1-0.3h1v-0.8c0-0.9,0.3-1.6,1-2.2s1.7-0.9,2.9-0.9
	c0.6,0,1.2,0.1,2,0.2s1.2,0.3,1.4,0.4c0.2,0.2,0.3,0.4,0.3,0.7c0,0.3-0.1,0.6-0.3,0.8c-0.2,0.2-0.4,0.3-0.7,0.3
	c-0.1,0-0.3,0-0.6-0.1c-0.9-0.2-1.6-0.2-2.3-0.2c-0.7,0-1.2,0.1-1.4,0.3c-0.3,0.2-0.4,0.5-0.4,0.8v0.8h3.2c0.5,0,0.9,0.1,1.1,0.3
	c0.2,0.2,0.3,0.4,0.3,0.8s-0.1,0.6-0.3,0.8c-0.2,0.2-0.6,0.3-1.1,0.3L483.6,216.7L483.6,216.7z M496.8,210.7v2.2h-2.5v-2.2H496.8z
	 M497,214.6v7.1h2.5c0.5,0,0.8,0.1,1,0.3c0.2,0.2,0.3,0.4,0.3,0.8c0,0.3-0.1,0.6-0.3,0.8c-0.2,0.2-0.6,0.3-1,0.3h-7.1
	c-0.5,0-0.9-0.1-1.1-0.3c-0.2-0.2-0.3-0.4-0.3-0.8c0-0.3,0.1-0.6,0.3-0.8c0.2-0.2,0.6-0.3,1.1-0.3h2.5v-5h-1.7
	c-0.5,0-0.8-0.1-1.1-0.3c-0.2-0.2-0.3-0.4-0.3-0.8c0-0.3,0.1-0.6,0.3-0.8c0.2-0.2,0.6-0.3,1.1-0.3L497,214.6L497,214.6z
	 M509.5,210.7v11.1h2.5c0.5,0,0.9,0.1,1.1,0.3c0.2,0.2,0.3,0.4,0.3,0.8c0,0.3-0.1,0.6-0.3,0.8c-0.2,0.2-0.6,0.3-1.1,0.3h-7.1
	c-0.5,0-0.9-0.1-1.1-0.3c-0.2-0.2-0.3-0.4-0.3-0.8c0-0.3,0.1-0.6,0.3-0.8c0.2-0.2,0.6-0.3,1.1-0.3h2.5v-9h-1.6
	c-0.5,0-0.9-0.1-1.1-0.3c-0.2-0.2-0.3-0.4-0.3-0.8c0-0.3,0.1-0.6,0.3-0.8c0.2-0.2,0.6-0.3,1.1-0.3L509.5,210.7L509.5,210.7z
	 M526.1,220.3h-8.5c0.2,0.5,0.6,1,1.2,1.3c0.5,0.3,1.3,0.5,2.2,0.5c0.8,0,1.8-0.2,3.1-0.5c0.5-0.1,0.9-0.2,1.1-0.2
	c0.3,0,0.5,0.1,0.7,0.3c0.2,0.2,0.3,0.4,0.3,0.7c0,0.3-0.1,0.5-0.3,0.7c-0.3,0.3-0.9,0.5-2,0.7c-1,0.2-2,0.3-3,0.3
	c-1.7,0-3-0.5-4-1.4s-1.5-2.1-1.5-3.5c0-1.5,0.5-2.6,1.6-3.6c1.1-0.9,2.3-1.4,3.7-1.4c0.8,0,1.6,0.1,2.3,0.4s1.2,0.6,1.6,1
	c0.5,0.5,0.9,1.1,1.2,1.9c0.2,0.5,0.3,1.1,0.3,1.8L526.1,220.3L526.1,220.3z M523.8,218.2c-0.3-0.6-0.7-1-1.2-1.3s-1.1-0.4-1.8-0.4
	s-1.3,0.1-1.8,0.4s-0.9,0.7-1.2,1.3H523.8z"/>
<path class="st3" d="M591.3,213.5l49-0.5"/>
<path class="st8" d="M591.3,213.5l40.5-0.4"/>
<path class="st9" d="M631.8,215.4l6.4-2.4l-6.4-2.3V215.4z"/>
<path class="st3" d="M312.9,213.2h44.9"/>
<path class="st8" d="M312.9,213.2h36.4"/>
<path class="st9" d="M349.3,215.6l6.4-2.3l-6.4-2.3V215.6z"/>
<path class="st3" d="M649.7,195.9h85.8v35.4h-85.8V195.9z"/>
<path class="st4" d="M661.2,220v-14.8h2.9l3.5,10.5c0.3,1,0.6,1.7,0.7,2.2c0.2-0.5,0.4-1.3,0.8-2.4l3.6-10.3h2.6V220h-1.9v-12.4
	l-4.3,12.4h-1.8l-4.3-12.7V220L661.2,220L661.2,220z M676.9,220l5.7-14.8h2.1l6.1,14.8h-2.2l-1.7-4.5h-6.2l-1.6,4.5H676.9z
	 M681.1,213.9h5l-1.5-4.1c-0.5-1.2-0.8-2.3-1.1-3.1c-0.2,1-0.5,1.9-0.8,2.8L681.1,213.9z M692.4,220v-14.8h10.7v1.7h-8.8v4.5h8.2
	v1.7h-8.2v5.1h9.1v1.7L692.4,220L692.4,220z"/>
<path class="st3" d="M197.4,195.9h117.4v35.4H197.4V195.9z"/>
<path class="st4" d="M208.7,220v-14.8h1.8v5.3c0.9-1,1.9-1.5,3.2-1.5c0.8,0,1.5,0.2,2.1,0.5s1,0.7,1.3,1.3c0.3,0.5,0.4,1.3,0.4,2.4
	v6.8h-1.8v-6.8c0-0.9-0.2-1.6-0.6-2s-1-0.6-1.7-0.6c-0.5,0-1.1,0.1-1.5,0.4c-0.5,0.3-0.8,0.7-1,1.2s-0.3,1.1-0.3,2v5.9L208.7,220
	L208.7,220z M227.2,220v-1.3c-0.7,1.1-1.7,1.6-3,1.6c-0.9,0-1.6-0.2-2.4-0.7c-0.7-0.5-1.3-1.1-1.7-2s-0.6-1.8-0.6-2.9s0.2-2,0.5-2.9
	c0.4-0.9,0.9-1.5,1.6-2c0.7-0.5,1.5-0.7,2.4-0.7c0.6,0,1.2,0.1,1.7,0.4s0.9,0.6,1.2,1v-5.3h1.8V220H227.2z M221.5,214.7
	c0,1.4,0.3,2.4,0.9,3.1c0.6,0.7,1.3,1,2.1,1s1.5-0.3,2-1c0.6-0.6,0.8-1.6,0.8-3c0-1.5-0.3-2.6-0.9-3.2c-0.6-0.7-1.3-1-2.1-1
	s-1.5,0.3-2,1C221.8,212.2,221.5,213.2,221.5,214.7z M232.2,220v-9.3h-1.6v-1.4h1.6v-1.2c0-0.7,0.1-1.3,0.2-1.6
	c0.2-0.5,0.5-0.9,0.9-1.2c0.4-0.3,1.1-0.4,1.9-0.4c0.5,0,1.1,0.1,1.7,0.2l-0.3,1.6c-0.4-0.1-0.7-0.1-1.1-0.1c-0.5,0-0.9,0.1-1.2,0.4
	c-0.2,0.2-0.3,0.7-0.3,1.3v1h2.1v1.4H234v9.3L232.2,220L232.2,220z M237.1,216.1l1.9-0.2c0.1,0.9,0.5,1.6,1,2.1s1.1,0.7,1.9,0.7
	c0.9,0,1.6-0.3,2.2-1c0.6-0.7,0.9-1.5,0.9-2.6c0-1-0.3-1.9-0.9-2.5c-0.6-0.6-1.4-0.9-2.3-0.9c-0.6,0-1.1,0.1-1.6,0.4s-0.8,0.6-1.1,1
	l-1.7-0.2l1.4-7.6h7.4v1.7h-5.9l-0.8,4c0.9-0.6,1.8-0.9,2.8-0.9c1.3,0,2.4,0.4,3.3,1.3c0.9,0.9,1.3,2,1.3,3.5c0,1.4-0.4,2.5-1.2,3.5
	c-1,1.2-2.3,1.8-3.9,1.8c-1.4,0-2.5-0.4-3.3-1.1C237.7,218.4,237.2,217.4,237.1,216.1z M254.9,224.1v-14.9h1.7v1.4
	c0.4-0.5,0.8-1,1.3-1.2c0.5-0.3,1.1-0.4,1.8-0.4c0.9,0,1.7,0.2,2.4,0.7s1.2,1.1,1.6,2s0.5,1.8,0.5,2.8c0,1.1-0.2,2.1-0.6,3
	s-1,1.5-1.7,2c-0.8,0.5-1.5,0.7-2.4,0.7c-0.6,0-1.2-0.1-1.6-0.4c-0.5-0.3-0.9-0.6-1.2-1v5.2L254.9,224.1L254.9,224.1z M256.5,214.7
	c0,1.4,0.3,2.4,0.8,3.1c0.6,0.7,1.3,1,2.1,1c0.8,0,1.5-0.3,2.1-1s0.9-1.8,0.9-3.2c0-1.4-0.3-2.4-0.9-3.1s-1.2-1-2-1
	s-1.5,0.4-2.1,1.1S256.5,213.3,256.5,214.7z M273.4,218.7c-0.7,0.6-1.3,1-1.9,1.2s-1.3,0.4-2,0.4c-1.2,0-2.1-0.3-2.7-0.9
	s-1-1.3-1-2.2c0-0.5,0.1-1,0.4-1.4c0.2-0.4,0.5-0.8,0.9-1.1c0.4-0.3,0.8-0.5,1.3-0.6c0.4-0.1,0.9-0.2,1.6-0.3
	c1.5-0.2,2.6-0.4,3.3-0.6c0-0.3,0-0.4,0-0.5c0-0.8-0.2-1.3-0.5-1.6c-0.5-0.4-1.1-0.6-2.1-0.6c-0.9,0-1.5,0.2-1.9,0.5
	s-0.7,0.8-0.9,1.6l-1.8-0.2c0.2-0.8,0.4-1.4,0.8-1.8c0.4-0.5,0.9-0.8,1.6-1.1c0.7-0.3,1.5-0.4,2.4-0.4s1.7,0.1,2.3,0.3
	c0.6,0.2,1,0.5,1.3,0.8s0.5,0.7,0.6,1.2c0.1,0.3,0.1,0.9,0.1,1.7v2.4c0,1.7,0,2.8,0.1,3.2c0.1,0.4,0.2,0.9,0.5,1.3h-2
	C273.6,219.6,273.5,219.2,273.4,218.7z M273.3,214.6c-0.7,0.3-1.7,0.5-3,0.7c-0.8,0.1-1.3,0.2-1.6,0.4c-0.3,0.1-0.6,0.3-0.7,0.6
	c-0.2,0.3-0.2,0.5-0.2,0.8c0,0.5,0.2,0.9,0.6,1.2c0.4,0.3,0.9,0.5,1.6,0.5s1.3-0.1,1.9-0.4s1-0.7,1.2-1.3c0.2-0.4,0.3-1,0.3-1.8
	L273.3,214.6L273.3,214.6z M281.9,218.4l0.3,1.6c-0.5,0.1-1,0.2-1.4,0.2c-0.6,0-1.2-0.1-1.5-0.3s-0.6-0.5-0.8-0.8
	c-0.1-0.3-0.2-1.1-0.2-2.1v-6.2H277v-1.4h1.3v-2.7l1.8-1.1v3.8h1.8v1.4h-1.8v6.3c0,0.5,0,0.9,0.1,1s0.2,0.3,0.3,0.4
	c0.1,0.1,0.4,0.1,0.6,0.1C281.3,218.5,281.6,218.4,281.9,218.4z M283.7,220v-14.8h1.8v5.3c0.9-1,1.9-1.5,3.2-1.5
	c0.8,0,1.5,0.2,2.1,0.5s1,0.7,1.3,1.3c0.3,0.5,0.4,1.3,0.4,2.4v6.8h-1.8v-6.8c0-0.9-0.2-1.6-0.6-2s-1-0.6-1.7-0.6
	c-0.5,0-1.1,0.1-1.5,0.4c-0.5,0.3-0.8,0.7-1,1.2s-0.3,1.1-0.3,2v5.9L283.7,220L283.7,220z"/>
<path class="st5" d="M376.7,251.6L376.7,251.6c0-3.2,2.6-5.8,5.8-5.8h193.6c1.5,0,3,0.6,4.1,1.7s1.7,2.6,1.7,4.1v23.2
	c0,3.2-2.6,5.8-5.8,5.8H382.5c-3.2,0-5.8-2.6-5.8-5.8L376.7,251.6L376.7,251.6z"/>
<path class="st6" d="M376.7,251.6L376.7,251.6c0-3.2,2.6-5.8,5.8-5.8h193.6c1.5,0,3,0.6,4.1,1.7s1.7,2.6,1.7,4.1v23.2
	c0,3.2-2.6,5.8-5.8,5.8H382.5c-3.2,0-5.8-2.6-5.8-5.8L376.7,251.6L376.7,251.6z"/>
<path class="st7" d="M427.7,261.5v7.1c0.4,0,0.8,0.1,1,0.3c0.2,0.2,0.3,0.4,0.3,0.7c0,0.3-0.1,0.6-0.3,0.8c-0.2,0.2-0.6,0.3-1.1,0.3
	h-2v-0.5c-0.6,0.3-1.2,0.5-1.7,0.6s-1.1,0.2-1.5,0.2c-0.7,0-1.3-0.1-1.8-0.4s-0.9-0.7-1.2-1.2c-0.2-0.4-0.3-0.8-0.3-1.4v-4.5h-0.4
	c-0.5,0-0.8-0.1-1.1-0.3c-0.2-0.2-0.3-0.4-0.3-0.8c0-0.3,0.1-0.6,0.3-0.8c0.2-0.2,0.6-0.3,1.1-0.3h2.4v6.2c0,0.4,0.1,0.7,0.3,1
	c0.2,0.2,0.6,0.3,1,0.3s0.9-0.1,1.3-0.2c0.5-0.2,1.1-0.5,1.8-0.9v-4.2h-0.7c-0.5,0-0.9-0.1-1.1-0.3c-0.2-0.2-0.3-0.4-0.3-0.8
	c0-0.3,0.1-0.6,0.3-0.8c0.2-0.2,0.6-0.3,1.1-0.3h2.9V261.5z M433.1,269.5v3.4h1.2c0.5,0,0.9,0.1,1.1,0.3c0.2,0.2,0.3,0.4,0.3,0.8
	c0,0.3-0.1,0.6-0.3,0.8c-0.2,0.2-0.6,0.3-1.1,0.3h-3.7c-0.5,0-0.9-0.1-1.1-0.3c-0.2-0.2-0.3-0.4-0.3-0.8c0-0.3,0.1-0.6,0.3-0.8
	c0.2-0.2,0.6-0.3,1.1-0.3h0.4v-9.4h-0.4c-0.5,0-0.9-0.1-1.1-0.3c-0.2-0.2-0.3-0.4-0.3-0.8c0-0.3,0.1-0.6,0.3-0.8
	c0.2-0.2,0.6-0.3,1.1-0.3h2.4v0.7c0.5-0.3,1-0.6,1.5-0.7c0.5-0.2,1-0.2,1.6-0.2c1.4,0,2.6,0.5,3.6,1.4c1,1,1.5,2.1,1.5,3.3
	c0,1.4-0.6,2.5-1.8,3.4c-1,0.7-2.1,1.1-3.3,1.1c-0.5,0-1.1-0.1-1.6-0.2C434.2,270.1,433.6,269.8,433.1,269.5z M439.3,266
	c0-0.3-0.1-0.7-0.4-1.1c-0.2-0.5-0.6-0.8-1-1.1s-1-0.4-1.7-0.4c-1,0-1.9,0.4-2.5,1.2c-0.4,0.5-0.6,1.1-0.6,1.5
	c0,0.5,0.3,1.1,0.9,1.6s1.3,0.8,2.2,0.8c0.9,0,1.6-0.3,2.2-0.8C439,267.1,439.3,266.5,439.3,266z M449.2,257.5v11.1h2.5
	c0.5,0,0.9,0.1,1.1,0.3c0.2,0.2,0.3,0.4,0.3,0.8s-0.1,0.6-0.3,0.8c-0.2,0.2-0.6,0.3-1.1,0.3h-7.1c-0.5,0-0.9-0.1-1.1-0.3
	c-0.2-0.2-0.3-0.4-0.3-0.8s0.1-0.6,0.3-0.8c0.2-0.2,0.6-0.3,1.1-0.3h2.5v-9h-1.7c-0.5,0-0.9-0.1-1.1-0.3c-0.2-0.2-0.3-0.4-0.3-0.8
	c0-0.3,0.1-0.6,0.3-0.8c0.2-0.2,0.6-0.3,1.1-0.3L449.2,257.5L449.2,257.5z M466,266.3c0,0.8-0.2,1.6-0.7,2.3c-0.4,0.7-1.1,1.3-2,1.8
	c-0.9,0.4-1.8,0.7-2.7,0.7c-0.9,0-1.9-0.2-2.7-0.6c-0.9-0.4-1.5-1-2-1.8s-0.7-1.5-0.7-2.3s0.2-1.6,0.7-2.4s1.1-1.4,2-1.9
	s1.8-0.7,2.7-0.7s1.9,0.2,2.7,0.7c0.9,0.5,1.5,1.1,2,1.9C465.8,264.6,466,265.4,466,266.3z M463.9,266.3c0-0.7-0.2-1.3-0.7-1.8
	c-0.7-0.8-1.5-1.1-2.6-1.1c-0.9,0-1.7,0.3-2.4,0.9c-0.6,0.6-0.9,1.3-0.9,2.1c0,0.6,0.3,1.3,1,1.8c0.6,0.6,1.4,0.8,2.3,0.8
	s1.7-0.3,2.3-0.8C463.6,267.5,463.9,266.9,463.9,266.3z M474.9,270.7v-0.5c-0.5,0.3-1.1,0.5-1.7,0.6s-1.2,0.2-1.7,0.2
	c-1.1,0-2-0.3-2.7-0.9s-1-1.3-1-2c0-0.9,0.4-1.7,1.3-2.4c0.9-0.8,2.1-1.1,3.7-1.1c0.6,0,1.4,0.1,2.2,0.2v-0.5c0-0.3-0.1-0.6-0.4-0.8
	s-0.8-0.3-1.5-0.3c-0.6,0-1.4,0.1-2.4,0.4c-0.4,0.1-0.7,0.1-0.9,0.1c-0.3,0-0.5-0.1-0.7-0.3c-0.2-0.2-0.3-0.5-0.3-0.8
	c0-0.2,0-0.3,0.1-0.4s0.2-0.2,0.3-0.3c0.1-0.1,0.4-0.2,0.8-0.3c0.5-0.1,1-0.3,1.6-0.3c0.5-0.1,1-0.1,1.5-0.1c1.3,0,2.3,0.3,3,0.8
	s1.1,1.3,1.1,2.3v4.3h0.4c0.5,0,0.9,0.1,1.1,0.3c0.2,0.2,0.3,0.4,0.3,0.8s-0.1,0.6-0.3,0.8c-0.2,0.2-0.6,0.3-1.1,0.3h-2.7V270.7z
	 M474.9,267c-0.8-0.2-1.6-0.2-2.3-0.2c-0.8,0-1.6,0.2-2.2,0.6c-0.4,0.3-0.6,0.5-0.6,0.8c0,0.2,0.1,0.4,0.3,0.5
	c0.3,0.2,0.8,0.3,1.4,0.3c0.5,0,1.1-0.1,1.7-0.3c0.6-0.2,1.2-0.5,1.7-0.8V267z M490.3,257.5v11.1h0.4c0.5,0,0.8,0.1,1.1,0.3
	c0.2,0.2,0.3,0.4,0.3,0.8c0,0.3-0.1,0.6-0.3,0.8c-0.2,0.2-0.6,0.3-1.1,0.3h-2.4v-0.5c-0.5,0.3-1,0.5-1.5,0.6s-1.1,0.2-1.6,0.2
	c-1.5,0-2.8-0.4-3.8-1.3s-1.4-2-1.4-3.4s0.5-2.6,1.5-3.6s2.2-1.5,3.7-1.5c0.5,0,1.1,0.1,1.6,0.2c0.5,0.2,1,0.4,1.5,0.8v-2.6h-0.5
	c-0.5,0-0.9-0.1-1.1-0.3c-0.2-0.2-0.3-0.4-0.3-0.8c0-0.3,0.1-0.6,0.3-0.8c0.2-0.2,0.6-0.3,1.1-0.3L490.3,257.5L490.3,257.5z
	 M488.2,266.3c0-0.9-0.3-1.6-0.9-2.2s-1.3-0.9-2.2-0.9c-0.9,0-1.6,0.3-2.2,0.9s-0.9,1.3-0.9,2.1c0,0.8,0.3,1.4,0.8,1.9
	s1.3,0.7,2.3,0.7s1.8-0.2,2.3-0.7C487.9,267.7,488.2,267.1,488.2,266.3z M497.9,263.6v5h2.9c0.5,0,0.9,0.1,1.1,0.3
	c0.2,0.2,0.3,0.4,0.3,0.8s-0.1,0.6-0.3,0.8c-0.2,0.2-0.6,0.3-1.1,0.3h-6.3c-0.5,0-0.9-0.1-1.1-0.3c-0.2-0.2-0.3-0.4-0.3-0.8
	s0.1-0.6,0.3-0.8c0.2-0.2,0.6-0.3,1.1-0.3h1.2v-5h-1c-0.5,0-0.9-0.1-1.1-0.3c-0.2-0.2-0.3-0.4-0.3-0.8c0-0.3,0.1-0.6,0.3-0.8
	c0.2-0.2,0.6-0.3,1.1-0.3h1v-0.8c0-0.9,0.3-1.6,1-2.2s1.7-0.9,2.9-0.9c0.6,0,1.2,0.1,2,0.2s1.2,0.3,1.4,0.4c0.2,0.2,0.3,0.4,0.3,0.7
	c0,0.3-0.1,0.6-0.3,0.8c-0.2,0.2-0.4,0.3-0.7,0.3c-0.1,0-0.3,0-0.6-0.1c-0.9-0.2-1.6-0.2-2.3-0.2c-0.7,0-1.2,0.1-1.4,0.3
	c-0.3,0.2-0.4,0.5-0.4,0.8v0.8h3.2c0.5,0,0.9,0.1,1.1,0.3c0.2,0.2,0.3,0.4,0.3,0.8c0,0.3-0.1,0.6-0.3,0.8c-0.2,0.2-0.6,0.3-1.1,0.3
	L497.9,263.6L497.9,263.6z M511.1,257.5v2.2h-2.5v-2.2H511.1z M511.4,261.5v7.1h2.5c0.5,0,0.8,0.1,1,0.3c0.2,0.2,0.3,0.4,0.3,0.8
	s-0.1,0.6-0.3,0.8c-0.2,0.2-0.6,0.3-1,0.3h-7.1c-0.5,0-0.9-0.1-1.1-0.3c-0.2-0.2-0.3-0.4-0.3-0.8s0.1-0.6,0.3-0.8
	c0.2-0.2,0.6-0.3,1.1-0.3h2.5v-5h-1.7c-0.5,0-0.8-0.1-1.1-0.3c-0.2-0.2-0.3-0.4-0.3-0.8c0-0.3,0.1-0.6,0.3-0.8
	c0.2-0.2,0.6-0.3,1.1-0.3L511.4,261.5L511.4,261.5z M523.9,257.5v11.1h2.5c0.5,0,0.9,0.1,1.1,0.3c0.2,0.2,0.3,0.4,0.3,0.8
	s-0.1,0.6-0.3,0.8c-0.2,0.2-0.6,0.3-1.1,0.3h-7.1c-0.5,0-0.9-0.1-1.1-0.3c-0.2-0.2-0.3-0.4-0.3-0.8s0.1-0.6,0.3-0.8
	c0.2-0.2,0.6-0.3,1.1-0.3h2.5v-9h-1.7c-0.5,0-0.9-0.1-1.1-0.3c-0.2-0.2-0.3-0.4-0.3-0.8c0-0.3,0.1-0.6,0.3-0.8
	c0.2-0.2,0.6-0.3,1.1-0.3L523.9,257.5L523.9,257.5z M540.5,267.1H532c0.2,0.5,0.6,1,1.2,1.3c0.5,0.3,1.3,0.5,2.2,0.5
	c0.8,0,1.8-0.2,3.1-0.5c0.5-0.1,0.9-0.2,1.1-0.2c0.3,0,0.5,0.1,0.7,0.3c0.2,0.2,0.3,0.4,0.3,0.7c0,0.3-0.1,0.5-0.3,0.7
	c-0.3,0.3-0.9,0.5-2,0.7c-1,0.2-2,0.3-3,0.3c-1.7,0-3-0.5-4-1.4s-1.5-2.1-1.5-3.5c0-1.5,0.5-2.6,1.6-3.6c1.1-0.9,2.3-1.4,3.7-1.4
	c0.8,0,1.6,0.1,2.3,0.4s1.2,0.6,1.6,1c0.5,0.5,0.9,1.1,1.2,1.9c0.2,0.5,0.3,1.1,0.3,1.8L540.5,267.1L540.5,267.1z M538.2,265.1
	c-0.3-0.6-0.7-1-1.2-1.3s-1.1-0.4-1.8-0.4s-1.3,0.1-1.8,0.4s-0.9,0.7-1.2,1.3H538.2z"/>
<path class="st3" d="M591.3,259.4l49-0.5"/>
<path class="st8" d="M591.3,259.4l40.5-0.4"/>
<path class="st9" d="M631.8,261.3l6.4-2.4l-6.4-2.3V261.3z"/>
<path class="st3" d="M648.3,243.2h179.8v35.4H648.3V243.2z"/>
<path class="st4" d="M659.8,267.4v-14.8h10.7v1.7h-8.7v4.5h8.2v1.7h-8.2v5.1h9.1v1.7L659.8,267.4L659.8,267.4z M672.2,267.4l3.9-5.6
	l-3.6-5.2h2.3l1.7,2.5c0.3,0.5,0.6,0.9,0.8,1.2c0.3-0.4,0.6-0.8,0.8-1.2l1.8-2.5h2.2l-3.7,5.1l4,5.7h-2.2l-2.2-3.3l-0.6-0.9
	l-2.8,4.2L672.2,267.4L672.2,267.4z M683.8,271.5v-14.9h1.7v1.4c0.4-0.5,0.8-1,1.3-1.2c0.5-0.3,1.1-0.4,1.8-0.4
	c0.9,0,1.7,0.2,2.4,0.7s1.2,1.1,1.6,2c0.4,0.9,0.5,1.8,0.5,2.8c0,1.1-0.2,2.1-0.6,3c-0.4,0.9-1,1.5-1.7,2c-0.8,0.5-1.5,0.7-2.4,0.7
	c-0.6,0-1.2-0.1-1.6-0.4c-0.5-0.3-0.9-0.6-1.2-1v5.2L683.8,271.5L683.8,271.5z M685.4,262.1c0,1.4,0.3,2.4,0.8,3.1
	c0.6,0.7,1.3,1,2.1,1s1.5-0.3,2.1-1s0.9-1.8,0.9-3.2c0-1.4-0.3-2.4-0.9-3.1c-0.6-0.7-1.2-1-2-1s-1.5,0.4-2.1,1.1
	C685.7,259.6,685.4,260.7,685.4,262.1z M702.7,263.9l1.9,0.2c-0.3,1.1-0.8,2-1.7,2.6c-0.8,0.6-1.8,0.9-3.1,0.9
	c-1.6,0-2.8-0.5-3.8-1.4c-0.9-1-1.4-2.3-1.4-4.1c0-1.8,0.5-3.2,1.4-4.2s2.2-1.5,3.6-1.5c1.4,0,2.6,0.5,3.5,1.5s1.4,2.4,1.4,4.1
	c0,0.1,0,0.3,0,0.5h-8c0.1,1.2,0.4,2.1,1,2.7s1.4,0.9,2.3,0.9c0.7,0,1.2-0.2,1.7-0.5C702,265.2,702.4,264.7,702.7,263.9z M696.7,261
	h6c-0.1-0.9-0.3-1.6-0.7-2c-0.6-0.7-1.3-1.1-2.3-1.1c-0.8,0-1.5,0.3-2.1,0.8C697.1,259.3,696.8,260,696.7,261z M706.8,267.4v-10.7
	h1.6v1.6c0.4-0.8,0.8-1.2,1.2-1.5s0.7-0.4,1.2-0.4c0.6,0,1.2,0.2,1.9,0.6l-0.6,1.7c-0.4-0.3-0.9-0.4-1.3-0.4c-0.4,0-0.8,0.1-1.1,0.4
	c-0.3,0.2-0.5,0.6-0.7,1c-0.2,0.6-0.3,1.4-0.3,2.1v5.6L706.8,267.4L706.8,267.4z M713.8,254.6v-2.1h1.8v2.1H713.8z M713.8,267.4
	v-10.7h1.8v10.7H713.8z M718.4,267.4v-10.7h1.6v1.5c0.3-0.5,0.8-1,1.3-1.3c0.6-0.3,1.2-0.5,1.9-0.5c0.8,0,1.4,0.2,1.9,0.5
	s0.9,0.8,1.1,1.4c0.9-1.3,2-1.9,3.3-1.9c1.1,0,1.9,0.3,2.5,0.9s0.9,1.5,0.9,2.7v7.4h-1.8v-6.8c0-0.7-0.1-1.3-0.2-1.6
	c-0.1-0.3-0.3-0.6-0.6-0.8c-0.3-0.2-0.7-0.3-1.1-0.3c-0.8,0-1.4,0.3-1.9,0.8s-0.8,1.3-0.8,2.4v6.3h-1.7v-7c0-0.8-0.1-1.4-0.4-1.8
	c-0.3-0.4-0.8-0.6-1.5-0.6c-0.5,0-1,0.1-1.4,0.4s-0.7,0.7-1,1.2c-0.2,0.5-0.3,1.3-0.3,2.3v5.6h-1.8V267.4z M743,263.9l1.9,0.2
	c-0.3,1.1-0.8,2-1.7,2.6c-0.8,0.6-1.8,0.9-3.1,0.9c-1.6,0-2.8-0.5-3.8-1.4c-0.9-1-1.4-2.3-1.4-4.1c0-1.8,0.5-3.2,1.4-4.2
	s2.2-1.5,3.6-1.5c1.4,0,2.6,0.5,3.5,1.5s1.4,2.4,1.4,4.1c0,0.1,0,0.3,0,0.5h-8c0.1,1.2,0.4,2.1,1,2.7s1.4,0.9,2.3,0.9
	c0.7,0,1.2-0.2,1.7-0.5C742.4,265.2,742.7,264.7,743,263.9z M737,261h6c-0.1-0.9-0.3-1.6-0.7-2c-0.6-0.7-1.3-1.1-2.3-1.1
	c-0.8,0-1.5,0.3-2.1,0.8C737.4,259.3,737.1,260,737,261z M747.2,267.4v-10.7h1.6v1.5c0.8-1.2,1.9-1.8,3.4-1.8c0.6,0,1.2,0.1,1.8,0.4
	c0.5,0.2,1,0.5,1.2,0.9c0.3,0.4,0.5,0.8,0.6,1.3c0.1,0.3,0.1,0.9,0.1,1.8v6.6h-1.8v-6.5c0-0.7-0.1-1.3-0.2-1.7
	c-0.1-0.4-0.4-0.7-0.8-0.9c-0.4-0.2-0.8-0.3-1.3-0.3c-0.8,0-1.4,0.3-2,0.8s-0.8,1.4-0.8,2.8v5.9L747.2,267.4L747.2,267.4z
	 M762.7,265.7l0.3,1.6c-0.5,0.1-1,0.2-1.4,0.2c-0.6,0-1.2-0.1-1.5-0.3c-0.4-0.2-0.6-0.5-0.8-0.8c-0.1-0.3-0.2-1.1-0.2-2.1v-6.2h-1.3
	v-1.4h1.3V254l1.8-1.1v3.8h1.8v1.4h-1.8v6.3c0,0.5,0,0.9,0.1,1s0.2,0.3,0.3,0.4s0.4,0.1,0.6,0.1
	C762.1,265.8,762.4,265.8,762.7,265.7z M764.8,267.4v-14.8h2v6.1h7.7v-6.1h2v14.8h-2v-7h-7.7v7H764.8z M786.5,267.4v-1.6
	c-0.8,1.2-2,1.8-3.4,1.8c-0.6,0-1.2-0.1-1.8-0.4c-0.5-0.3-1-0.6-1.2-0.9c-0.3-0.4-0.4-0.8-0.6-1.3c-0.1-0.4-0.1-0.9-0.1-1.7v-6.7
	h1.8v5.9c0,1,0,1.6,0.1,1.9c0.1,0.5,0.4,0.9,0.7,1.2c0.4,0.3,0.8,0.4,1.4,0.4c0.5,0,1.1-0.1,1.5-0.4c0.5-0.3,0.8-0.7,1-1.2
	s0.3-1.2,0.3-2.1v-5.8h1.8v10.7h-1.5V267.4z M792.7,267.4H791v-14.8h1.8v5.3c0.8-1,1.7-1.4,2.9-1.4c0.7,0,1.3,0.1,1.9,0.4
	c0.6,0.3,1.1,0.6,1.5,1.1s0.7,1.1,0.9,1.7c0.2,0.7,0.3,1.4,0.3,2.2c0,1.9-0.5,3.3-1.4,4.3s-2,1.5-3.3,1.5s-2.3-0.5-3-1.6
	L792.7,267.4L792.7,267.4z M792.7,261.9c0,1.3,0.2,2.2,0.5,2.8c0.6,0.9,1.3,1.4,2.3,1.4c0.8,0,1.5-0.3,2.1-1s0.9-1.7,0.9-3.1
	s-0.3-2.4-0.8-3.1c-0.6-0.7-1.2-1-2-1s-1.5,0.3-2.1,1C793,259.6,792.7,260.6,792.7,261.9z"/>
<path class="st3" d="M197.4,241.4h117.4v35.4H197.4V241.4z"/>
<path class="st4" d="M208.7,265.6v-14.8h1.8v5.3c0.9-1,1.9-1.5,3.2-1.5c0.8,0,1.5,0.2,2.1,0.5s1,0.7,1.3,1.3
	c0.3,0.5,0.4,1.3,0.4,2.4v6.8h-1.8v-6.8c0-0.9-0.2-1.6-0.6-2c-0.4-0.4-1-0.6-1.7-0.6c-0.5,0-1.1,0.1-1.5,0.4c-0.5,0.3-0.8,0.7-1,1.2
	s-0.3,1.1-0.3,2v5.9L208.7,265.6L208.7,265.6z M227.2,265.6v-1.3c-0.7,1.1-1.7,1.6-3,1.6c-0.9,0-1.6-0.2-2.4-0.7
	c-0.7-0.5-1.3-1.1-1.7-2s-0.6-1.8-0.6-2.9s0.2-2,0.5-2.9c0.4-0.9,0.9-1.5,1.6-2c0.7-0.5,1.5-0.7,2.4-0.7c0.6,0,1.2,0.1,1.7,0.4
	s0.9,0.6,1.2,1v-5.3h1.8v14.8H227.2z M221.5,260.2c0,1.4,0.3,2.4,0.9,3.1c0.6,0.7,1.3,1,2.1,1s1.5-0.3,2-1c0.6-0.6,0.8-1.6,0.8-3
	c0-1.5-0.3-2.6-0.9-3.2c-0.6-0.7-1.3-1-2.1-1s-1.5,0.3-2,1C221.8,257.7,221.5,258.8,221.5,260.2z M232.2,265.6v-9.3h-1.6v-1.4h1.6
	v-1.2c0-0.7,0.1-1.3,0.2-1.6c0.2-0.5,0.5-0.9,0.9-1.2c0.4-0.3,1.1-0.4,1.9-0.4c0.5,0,1.1,0.1,1.7,0.2l-0.3,1.6
	c-0.4-0.1-0.7-0.1-1.1-0.1c-0.5,0-0.9,0.1-1.2,0.4c-0.2,0.2-0.3,0.7-0.3,1.3v1h2.1v1.4H234v9.3L232.2,265.6L232.2,265.6z
	 M237.1,261.7l1.9-0.2c0.1,0.9,0.5,1.6,1,2.1s1.1,0.7,1.9,0.7c0.9,0,1.6-0.3,2.2-1c0.6-0.7,0.9-1.5,0.9-2.6c0-1-0.3-1.9-0.9-2.5
	c-0.6-0.6-1.4-0.9-2.3-0.9c-0.6,0-1.1,0.1-1.6,0.4s-0.8,0.6-1.1,1l-1.7-0.2l1.4-7.6h7.4v1.7h-5.9l-0.8,4c0.9-0.6,1.8-0.9,2.8-0.9
	c1.3,0,2.4,0.4,3.3,1.3c0.9,0.9,1.3,2,1.3,3.5c0,1.4-0.4,2.5-1.2,3.5c-1,1.2-2.3,1.8-3.9,1.8c-1.4,0-2.5-0.4-3.3-1.1
	C237.7,263.9,237.2,262.9,237.1,261.7z M254.9,269.7v-14.9h1.7v1.4c0.4-0.5,0.8-1,1.3-1.2c0.5-0.3,1.1-0.4,1.8-0.4
	c0.9,0,1.7,0.2,2.4,0.7c0.7,0.5,1.2,1.1,1.6,2s0.5,1.8,0.5,2.8c0,1.1-0.2,2.1-0.6,3s-1,1.5-1.7,2c-0.8,0.5-1.5,0.7-2.4,0.7
	c-0.6,0-1.2-0.1-1.6-0.4c-0.5-0.3-0.9-0.6-1.2-1v5.2L254.9,269.7L254.9,269.7z M256.5,260.2c0,1.4,0.3,2.4,0.8,3.1
	c0.6,0.7,1.3,1,2.1,1c0.8,0,1.5-0.3,2.1-1s0.9-1.8,0.9-3.2c0-1.4-0.3-2.4-0.9-3.1s-1.2-1-2-1s-1.5,0.4-2.1,1.1
	S256.5,258.9,256.5,260.2z M273.4,264.2c-0.7,0.6-1.3,1-1.9,1.2s-1.3,0.4-2,0.4c-1.2,0-2.1-0.3-2.7-0.9s-1-1.3-1-2.2
	c0-0.5,0.1-1,0.4-1.4c0.2-0.4,0.5-0.8,0.9-1.1c0.4-0.3,0.8-0.5,1.3-0.6c0.4-0.1,0.9-0.2,1.6-0.3c1.5-0.2,2.6-0.4,3.3-0.6
	c0-0.3,0-0.4,0-0.5c0-0.8-0.2-1.3-0.5-1.6c-0.5-0.4-1.1-0.6-2.1-0.6c-0.9,0-1.5,0.2-1.9,0.5s-0.7,0.8-0.9,1.6l-1.8-0.2
	c0.2-0.8,0.4-1.4,0.8-1.8c0.4-0.5,0.9-0.8,1.6-1.1c0.7-0.3,1.5-0.4,2.4-0.4s1.7,0.1,2.3,0.3c0.6,0.2,1,0.5,1.3,0.8s0.5,0.7,0.6,1.2
	c0.1,0.3,0.1,0.9,0.1,1.7v2.4c0,1.7,0,2.8,0.1,3.2c0.1,0.4,0.2,0.9,0.5,1.3h-2C273.6,265.2,273.5,264.7,273.4,264.2z M273.3,260.2
	c-0.7,0.3-1.7,0.5-3,0.7c-0.8,0.1-1.3,0.2-1.6,0.4c-0.3,0.1-0.6,0.3-0.7,0.6c-0.2,0.3-0.2,0.5-0.2,0.8c0,0.5,0.2,0.9,0.6,1.2
	c0.4,0.3,0.9,0.5,1.6,0.5s1.3-0.1,1.9-0.4s1-0.7,1.2-1.3c0.2-0.4,0.3-1,0.3-1.8L273.3,260.2L273.3,260.2z M281.9,263.9l0.3,1.6
	c-0.5,0.1-1,0.2-1.4,0.2c-0.6,0-1.2-0.1-1.5-0.3c-0.4-0.2-0.6-0.5-0.8-0.8c-0.1-0.3-0.2-1.1-0.2-2.1v-6.2H277v-1.4h1.3v-2.8l1.8-1.1
	v3.8h1.8v1.4h-1.8v6.3c0,0.5,0,0.9,0.1,1s0.2,0.3,0.3,0.4c0.1,0.1,0.4,0.1,0.6,0.1C281.3,264,281.6,264,281.9,263.9z M283.7,265.6
	v-14.8h1.8v5.3c0.9-1,1.9-1.5,3.2-1.5c0.8,0,1.5,0.2,2.1,0.5s1,0.7,1.3,1.3c0.3,0.5,0.4,1.3,0.4,2.4v6.8h-1.8v-6.8
	c0-0.9-0.2-1.6-0.6-2s-1-0.6-1.7-0.6c-0.5,0-1.1,0.1-1.5,0.4c-0.5,0.3-0.8,0.7-1,1.2s-0.3,1.1-0.3,2v5.9L283.7,265.6L283.7,265.6z"
	/>
<path class="st3" d="M312.9,259.1h44.9"/>
<path class="st8" d="M312.9,259.1h36.4"/>
<path class="st9" d="M349.3,261.4l6.4-2.3l-6.4-2.3V261.4z"/>
</svg>
